<svg width="26" height="26" viewBox="0 0 26 26" xmlns="http://www.w3.org/2000/svg"><title>Group</title><g fill="#006AA5" fill-rule="evenodd"><path d="M18.958 26H7.042C3.16 26 0 22.84 0 18.958V7.042C0 3.16 3.16 0 7.042 0h11.916C22.84 0 26 3.16 26 7.042v11.916C26 22.84 22.84 26 18.958 26zM7.042 2.167c-2.688 0-4.875 2.187-4.875 4.875v11.916c0 2.688 2.187 4.875 4.875 4.875h11.916c2.688 0 4.875-2.187 4.875-4.875V7.042c0-2.688-2.187-4.875-4.875-4.875H7.042z"/><path d="M13 19.5c-3.584 0-6.5-2.916-6.5-6.5S9.416 6.5 13 6.5s6.5 2.916 6.5 6.5-2.916 6.5-6.5 6.5zm0-10.833c-2.39 0-4.333 1.944-4.333 4.333 0 2.39 1.944 4.333 4.333 4.333 2.39 0 4.333-1.944 4.333-4.333 0-2.39-1.944-4.333-4.333-4.333z"/><ellipse cx="19.906" cy="6.094" rx="1.49" ry="1.49"/></g></svg>