<svg width="32" height="26" viewBox="0 0 32 26" xmlns="http://www.w3.org/2000/svg"><title>path5_1_</title><path d="M31.25 3.006c-1.15.51-2.385.855-3.682 1.01 1.323-.794 2.34-2.05 2.82-3.547-1.24.734-2.612 1.267-4.073 1.555C25.145.778 23.48 0 21.635 0c-3.54 0-6.41 2.87-6.41 6.41 0 .504.056.993.165 1.463-5.328-.268-10.052-2.82-13.214-6.7-.552.947-.868 2.048-.868 3.224 0 2.224 1.13 4.186 2.852 5.336C3.11 9.7 2.12 9.41 1.256 8.93v.082c0 3.106 2.21 5.697 5.142 6.287-.538.145-1.105.224-1.69.224-.412 0-.813-.042-1.205-.116.816 2.547 3.184 4.4 5.99 4.453-2.195 1.72-4.96 2.746-7.964 2.746-.518 0-1.028-.03-1.53-.09 2.838 1.82 6.208 2.88 9.828 2.88 11.793 0 18.242-9.77 18.242-18.24 0-.28-.007-.556-.018-.83 1.25-.905 2.34-2.034 3.198-3.32z" fill="#006AA5" fill-rule="evenodd"/></svg>