<svg width="14" height="14" viewBox="0 0 14 14" xmlns="http://www.w3.org/2000/svg"><title>Shape</title><path d="M11.294 0H2.706C1.214 0 0 1.19 0 2.652v8.422c0 1.462 1.214 2.65 2.706 2.65h8.59c1.49 0 2.704-1.188 2.704-2.65V2.65C14 1.19 12.786 0 11.294 0zm.776 1.582h.31V3.906l-2.365.007-.008-2.326 2.063-.006zM5.002 5.454C5.45 4.846 6.178 4.447 7 4.447c.822 0 1.55.4 1.998 1.007.29.397.466.882.466 1.408 0 1.332-1.106 2.416-2.464 2.416-1.36 0-2.464-1.084-2.464-2.416 0-.526.174-1.01.466-1.408zm7.634 5.62c0 .724-.602 1.314-1.342 1.314H2.706c-.74 0-1.342-.59-1.342-1.315v-5.62h2.09c-.18.436-.282.91-.282 1.41 0 2.068 1.717 3.753 3.828 3.753 2.11 0 3.828-1.685 3.828-3.754 0-.498-.102-.973-.283-1.408h2.09v5.62z" fill="#FFF" fill-rule="evenodd"/></svg>