<svg width="16" height="13" viewBox="0 0 16 13" xmlns="http://www.w3.org/2000/svg"><title>path5_1_</title><path d="M15.625 1.503c-.575.255-1.192.427-1.84.505.66-.397 1.17-1.025 1.408-1.773-.62.367-1.305.633-2.035.777C12.573.39 11.74 0 10.818 0c-1.77 0-3.206 1.435-3.206 3.206 0 .25.028.495.083.73C5.03 3.802 2.67 2.526 1.088.586.812 1.06.654 1.612.654 2.2c0 1.113.566 2.094 1.426 2.67-.525-.018-1.02-.162-1.452-.402v.04c0 1.553 1.105 2.85 2.57 3.144-.268.072-.55.112-.843.112-.207 0-.408-.02-.603-.058.408 1.273 1.592 2.2 2.994 2.226-1.097.86-2.48 1.373-3.98 1.373-.26 0-.515-.015-.766-.045 1.42.91 3.104 1.44 4.914 1.44 5.896 0 9.12-4.884 9.12-9.12 0-.14-.002-.278-.008-.415.626-.453 1.17-1.017 1.6-1.66z" fill="#FFF" fill-rule="evenodd"/></svg>