<?xml version="1.0" encoding="UTF-8" standalone="no"?>
<svg width="602px" height="309px" viewBox="0 0 602 309" version="1.1" xmlns="http://www.w3.org/2000/svg" xmlns:xlink="http://www.w3.org/1999/xlink">
    <!-- Generator: Sketch 3.8.2 (29753) - http://www.bohemiancoding.com/sketch -->
    <title>iconidenti</title>
    <desc>Created with Sketch.</desc>
    <defs></defs>
    <g id="Page-1" stroke="none" stroke-width="1" fill="none" fill-rule="evenodd">
        <g id="Identi_Wireframe" transform="translate(-705.000000, -869.000000)">
            <g id="iconidenti" transform="translate(705.000000, 869.000000)">
                <g id="Layer_1">
                    <g id="Group" transform="translate(222.678435, 0.000000)">
                        <rect id="Rectangle-path" fill="#288CB0" x="0.239249989" y="0.056856353" width="378.732733" height="21.5331667"></rect>
                        <ellipse id="Oval" fill="#70C2D8" cx="16.1493743" cy="10.703811" rx="5.38312476" ry="5.38329167"></ellipse>
                        <ellipse id="Oval" fill="#E2D6CF" cx="39.2369983" cy="10.703811" rx="5.38312476" ry="5.38329167"></ellipse>
                        <ellipse id="Oval" fill="#CEAC92" cx="62.2049972" cy="10.703811" rx="5.38312476" ry="5.38329167"></ellipse>
                        <rect id="Rectangle-path" fill="#E9F4F7" x="0.239249989" y="21.4703943" width="378.732733" height="287.108889"></rect>
                    </g>
                    <rect id="Rectangle-path" fill="#70C2D8" x="222.917685" y="21.4703943" width="378.732733" height="125.131624"></rect>
                    <rect id="Rectangle-path" fill="#FFFFFF" x="257.848184" y="38.3380415" width="48.8069978" height="16.7480185"></rect>
                    <g id="Group" transform="translate(0.000000, 46.831679)">
                        <rect id="Rectangle-path" fill="#288CB0" x="0.0563203835" y="12.9199" width="378.732733" height="21.5331667"></rect>
                        <ellipse id="Oval" fill="#70C2D8" cx="15.8468197" cy="23.6864833" rx="5.38312476" ry="5.38329167"></ellipse>
                        <ellipse id="Oval" fill="#E2D6CF" cx="38.9344437" cy="23.6864833" rx="5.38312476" ry="5.38329167"></ellipse>
                        <ellipse id="Oval" fill="#CEAC92" cx="61.9024426" cy="23.6864833" rx="5.38312476" ry="5.38329167"></ellipse>
                        <g>
                            <g transform="translate(0.000000, 33.496037)">
                                <g>
                                    <path d="M407.618677,13.3984148 L378.310554,13.3984148 C377.233929,13.3984148 376.396554,12.5610139 376.396554,11.4843556 L376.396554,11.1254694 C376.396554,10.0488111 377.233929,9.21141018 378.310554,9.21141018 L407.618677,9.21141018 C408.695302,9.21141018 409.532677,10.0488111 409.532677,11.1254694 L409.532677,11.4843556 C409.413052,12.5610139 408.575677,13.3984148 407.618677,13.3984148 L407.618677,13.3984148 Z" id="Shape" fill="#FFFFFF"></path>
                                    <path d="M464.799425,22.8490824 L378.310554,22.8490824 C377.233929,22.8490824 376.396554,22.0116815 376.396554,20.9350231 L376.396554,20.576137 C376.396554,19.4994787 377.233929,18.6620778 378.310554,18.6620778 L464.799425,18.6620778 C465.87605,18.6620778 466.713425,19.4994787 466.713425,20.576137 L466.713425,20.9350231 C466.713425,22.0116815 465.87605,22.8490824 464.799425,22.8490824 L464.799425,22.8490824 Z" id="Shape" fill="#FFFFFF"></path>
                                    <rect id="Rectangle-path" fill="#D1E3ED" x="0.0563203835" y="0.95702963" width="378.732733" height="227.294537"></rect>
                                    <rect id="Rectangle-path" fill="#70C2D8" x="75.180817" y="148.937736" width="21.412874" height="41.989675"></rect>
                                    <rect id="Rectangle-path" fill="#288CB0" x="96.5936911" y="139.845955" width="23.446499" height="51.2010852"></rect>
                                    <rect id="Rectangle-path" fill="#70C2D8" x="120.04019" y="142.956301" width="22.130624" height="48.0907389"></rect>
                                    <rect id="Rectangle-path" fill="#288CB0" x="142.170814" y="115.800585" width="24.1642489" height="75.2464546"></rect>
                                    <rect id="Rectangle-path" fill="#70C2D8" x="166.335063" y="139.845955" width="23.087624" height="51.2010852"></rect>
                                    <rect id="Rectangle-path" fill="#288CB0" x="189.422687" y="121.303506" width="23.326874" height="69.7435343"></rect>
                                    <rect id="Rectangle-path" fill="#70C2D8" x="212.629936" y="122.619421" width="23.8053739" height="68.4276185"></rect>
                                    <rect id="Rectangle-path" fill="#288CB0" x="236.43531" y="134.582292" width="22.489499" height="56.4647481"></rect>
                                    <rect id="Rectangle-path" fill="#70C2D8" x="258.924809" y="145.229246" width="23.326874" height="45.6981648"></rect>
                                    <rect id="Rectangle-path" fill="#288CB0" x="282.251683" y="107.546205" width="23.087624" height="83.5008352"></rect>
                                    <rect id="Rectangle-path" fill="#70C2D8" x="305.339307" y="103.478829" width="20.5754991" height="87.4485824"></rect>
                                    <rect id="Rectangle-path" fill="#288CB0" x="325.914806" y="125.370881" width="26.6763738" height="65.5565296"></rect>
                                </g>
                                <path d="M229.25781,37.3241556 C233.56431,41.6307889 236.19606,47.4925954 236.19606,53.9525454 C236.19606,60.4124954 233.56431,66.2743018 229.25781,70.5809352 L228.659685,69.9827917 L212.629936,53.9525454 L228.898935,37.6830417 L229.25781,37.3241556 L229.25781,37.3241556 Z" id="Shape" fill="#288CB0"></path>
                                <path d="M229.25781,37.3241556 L228.898935,37.6830417 L212.629936,53.9525454 L199.710436,34.333438 C203.418811,31.8212352 207.844936,30.3856907 212.629936,30.3856907 C219.209311,30.3856907 225.070935,33.0175222 229.25781,37.3241556 L229.25781,37.3241556 Z" id="Shape" fill="#1481B6"></path>
                                <path d="M228.659685,69.863163 L229.25781,70.4613065 C224.95131,74.7679398 219.089686,77.3997713 212.629936,77.3997713 C199.710436,77.3997713 189.183437,66.8724454 189.183437,53.9525454 C189.183437,51.9188574 189.422687,50.0047981 189.901187,48.0907389 L212.629936,53.9525454 L228.659685,69.863163 L228.659685,69.863163 Z" id="Shape" fill="#70C2D8"></path>
                                <path d="M199.710436,34.333438 L212.629936,53.9525454 L189.901187,48.0907389 C191.336687,42.3485611 194.925437,37.4437843 199.710436,34.333438 L199.710436,34.333438 Z" id="Shape" fill="#3497B2"></path>
                            </g>
                            <path d="M59.2706927,72.255737 L29.9625691,72.255737 C28.8859441,72.255737 28.0485691,71.4183361 28.0485691,70.3416778 L28.0485691,69.9827917 C28.0485691,68.9061333 28.8859441,68.0687324 29.9625691,68.0687324 L59.2706927,68.0687324 C60.3473177,68.0687324 61.1846927,68.9061333 61.1846927,69.9827917 L61.1846927,70.3416778 C61.0650677,71.4183361 60.2276927,72.255737 59.2706927,72.255737 L59.2706927,72.255737 Z" id="Shape" fill="#FFFFFF"></path>
                            <path d="M59.2706927,102.761056 L29.9625691,102.761056 C28.8859441,102.761056 28.0485691,101.923656 28.0485691,100.846997 L28.0485691,100.488111 C28.0485691,99.4114528 28.8859441,98.5740518 29.9625691,98.5740518 L59.2706927,98.5740518 C60.3473177,98.5740518 61.1846927,99.4114528 61.1846927,100.488111 L61.1846927,100.846997 C61.0650677,101.923656 60.2276927,102.761056 59.2706927,102.761056 L59.2706927,102.761056 Z" id="Shape" fill="#FFFFFF"></path>
                            <path d="M500.328048,4.18700463 L471.019924,4.18700463 C469.943299,4.18700463 469.105924,3.3496037 469.105924,2.27294537 L469.105924,1.91405926 C469.105924,0.837400926 469.943299,-2.77999845e-13 471.019924,-2.77999845e-13 L500.328048,-2.77999845e-13 C501.404673,-2.77999845e-13 502.242048,0.837400926 502.242048,1.91405926 L502.242048,2.27294537 C502.122423,3.229975 501.285048,4.18700463 500.328048,4.18700463 L500.328048,4.18700463 Z" id="Shape" fill="#FFFFFF"></path>
                            <path d="M449.487425,46.8944518 L420.179302,46.8944518 C419.102677,46.8944518 418.265302,46.0570509 418.265302,44.9803926 L418.265302,44.6215065 C418.265302,43.5448481 419.102677,42.7074472 420.179302,42.7074472 L449.487425,42.7074472 C450.56405,42.7074472 451.401425,43.5448481 451.401425,44.6215065 L451.401425,44.9803926 C451.2818,46.0570509 450.444425,46.8944518 449.487425,46.8944518 L449.487425,46.8944518 Z" id="Shape" fill="#FFFFFF"></path>
                            <path d="M559.422795,4.18700463 L530.114672,4.18700463 C529.038047,4.18700463 528.200672,3.3496037 528.200672,2.27294537 L528.200672,1.91405926 C528.200672,0.837400926 529.038047,-2.77999845e-13 530.114672,-2.77999845e-13 L559.422795,-2.77999845e-13 C560.49942,-2.77999845e-13 561.336795,0.837400926 561.336795,1.91405926 L561.336795,2.27294537 C561.336795,3.229975 560.49942,4.18700463 559.422795,4.18700463 L559.422795,4.18700463 Z" id="Shape" fill="#FFFFFF"></path>
                            <path d="M436.089426,201.813623 L388.598303,201.813623 C387.521678,201.813623 386.684303,200.976222 386.684303,199.899564 L386.684303,199.540678 C386.684303,198.464019 387.521678,197.626618 388.598303,197.626618 L436.089426,197.626618 C437.166051,197.626618 438.003426,198.464019 438.003426,199.540678 L438.003426,199.899564 C438.003426,200.976222 437.166051,201.813623 436.089426,201.813623 L436.089426,201.813623 Z" id="Shape" fill="#FFFFFF"></path>
                            <path d="M436.089426,209.828746 L388.598303,209.828746 C387.521678,209.828746 386.684303,208.991345 386.684303,207.914687 L386.684303,207.555801 C386.684303,206.479143 387.521678,205.641742 388.598303,205.641742 L436.089426,205.641742 C437.166051,205.641742 438.003426,206.479143 438.003426,207.555801 L438.003426,207.914687 C438.003426,208.991345 437.166051,209.828746 436.089426,209.828746 L436.089426,209.828746 Z" id="Shape" fill="#FFFFFF"></path>
                            <path d="M555.475171,201.813623 L507.984048,201.813623 C506.907423,201.813623 506.070048,200.976222 506.070048,199.899564 L506.070048,199.540678 C506.070048,198.464019 506.907423,197.626618 507.984048,197.626618 L555.475171,197.626618 C556.551796,197.626618 557.389171,198.464019 557.389171,199.540678 L557.389171,199.899564 C557.389171,200.976222 556.551796,201.813623 555.475171,201.813623 L555.475171,201.813623 Z" id="Shape" fill="#FFFFFF"></path>
                            <path d="M555.475171,209.828746 L507.984048,209.828746 C506.907423,209.828746 506.070048,208.991345 506.070048,207.914687 L506.070048,207.555801 C506.070048,206.479143 506.907423,205.641742 507.984048,205.641742 L555.475171,205.641742 C556.551796,205.641742 557.389171,206.479143 557.389171,207.555801 L557.389171,207.914687 C557.389171,208.991345 556.551796,209.828746 555.475171,209.828746 L555.475171,209.828746 Z" id="Shape" fill="#FFFFFF"></path>
                            <path d="M59.2706927,133.146747 L29.9625691,133.146747 C28.8859441,133.146747 28.0485691,132.309346 28.0485691,131.232688 L28.0485691,130.873802 C28.0485691,129.797144 28.8859441,128.959743 29.9625691,128.959743 L59.2706927,128.959743 C60.3473177,128.959743 61.1846927,129.797144 61.1846927,130.873802 L61.1846927,131.232688 C61.0650677,132.309346 60.2276927,133.146747 59.2706927,133.146747 L59.2706927,133.146747 Z" id="Shape" fill="#FFFFFF"></path>
                            <path d="M59.2706927,163.652067 L29.9625691,163.652067 C28.8859441,163.652067 28.0485691,162.814666 28.0485691,161.738007 L28.0485691,161.379121 C28.0485691,160.302463 28.8859441,159.465062 29.9625691,159.465062 L59.2706927,159.465062 C60.3473177,159.465062 61.1846927,160.302463 61.1846927,161.379121 L61.1846927,161.738007 C61.0650677,162.814666 60.2276927,163.652067 59.2706927,163.652067 L59.2706927,163.652067 Z" id="Shape" fill="#FFFFFF"></path>
                            <path d="M59.2706927,194.037757 L29.9625691,194.037757 C28.8859441,194.037757 28.0485691,193.200356 28.0485691,192.123698 L28.0485691,191.764812 C28.0485691,190.688154 28.8859441,189.850753 29.9625691,189.850753 L59.2706927,189.850753 C60.3473177,189.850753 61.1846927,190.688154 61.1846927,191.764812 L61.1846927,192.123698 C61.0650677,193.200356 60.2276927,194.037757 59.2706927,194.037757 L59.2706927,194.037757 Z" id="Shape" fill="#FFFFFF"></path>
                            <path d="M59.2706927,224.543077 L29.9625691,224.543077 C28.8859441,224.543077 28.0485691,223.705676 28.0485691,222.629018 L28.0485691,222.270131 C28.0485691,221.193473 28.8859441,220.356072 29.9625691,220.356072 L59.2706927,220.356072 C60.3473177,220.356072 61.1846927,221.193473 61.1846927,222.270131 L61.1846927,222.629018 C61.0650677,223.586047 60.2276927,224.543077 59.2706927,224.543077 L59.2706927,224.543077 Z" id="Shape" fill="#FFFFFF"></path>
                            <path d="M106.283316,138.051524 L86.3059415,116.757615 C85.5881916,116.039843 85.5881916,114.843556 86.4255665,114.125783 L86.6648165,113.886526 C87.3825665,113.168754 88.5788164,113.168754 89.2965664,114.006155 L109.273941,135.419693 C109.99169,136.137465 109.99169,137.333752 109.154316,138.051524 L108.915066,138.290781 C108.197316,138.888925 107.001066,138.888925 106.283316,138.051524 L106.283316,138.051524 Z" id="Shape" fill="#FFFFFF"></path>
                            <path d="M132.361564,117.475387 L111.068315,137.573009 C110.350565,138.290781 109.154316,138.290781 108.436566,137.453381 L108.197316,137.214123 C107.479566,136.496351 107.479566,135.300064 108.316941,134.582292 L129.61019,114.484669 C130.32794,113.766897 131.52419,113.766897 132.241939,114.604298 L132.481189,114.843556 C133.198939,115.561328 133.079314,116.757615 132.361564,117.475387 L132.361564,117.475387 Z" id="Shape" fill="#FFFFFF"></path>
                            <path d="M156.406188,97.8562796 L133.677439,116.398729 C132.840064,117.116501 131.643815,116.877244 131.04569,116.159471 L130.80644,115.800585 C130.08869,114.963184 130.32794,113.766897 131.04569,113.168754 L153.774439,94.6263046 C154.611813,93.9085324 155.808063,94.1477898 156.406188,94.865562 L156.645438,95.2244481 C157.363188,95.9422204 157.243563,97.1385074 156.406188,97.8562796 L156.406188,97.8562796 Z" id="Shape" fill="#FFFFFF"></path>
                            <path d="M175.187313,131.830831 L154.013689,99.7703389 C153.415564,98.932938 153.654814,97.7366509 154.611813,97.1385074 L154.970688,96.89925 C155.808063,96.3011065 157.004313,96.5403639 157.602438,97.4973935 L178.776062,129.557886 C179.374187,130.395287 179.134937,131.591574 178.177937,132.189718 L177.819062,132.428975 C176.862063,132.90749 175.785438,132.668232 175.187313,131.830831 L175.187313,131.830831 Z" id="Shape" fill="#FFFFFF"></path>
                            <path d="M201.504811,130.036401 L178.058312,134.223406 C176.981687,134.462663 176.024688,133.744891 175.905063,132.668232 L175.785438,132.309346 C175.546188,131.232688 176.263938,130.275658 177.340562,130.15603 L200.787061,125.969025 C201.863686,125.729768 202.820686,126.44754 202.940311,127.524198 L203.059936,127.883084 C203.179561,128.959743 202.461811,129.916772 201.504811,130.036401 L201.504811,130.036401 Z" id="Shape" fill="#FFFFFF"></path>
                            <path d="M224.592435,129.797144 L200.787061,129.797144 C199.710436,129.797144 198.873062,128.959743 198.873062,127.883084 L198.873062,127.524198 C198.873062,126.44754 199.710436,125.610139 200.787061,125.610139 L224.592435,125.610139 C225.66906,125.610139 226.506435,126.44754 226.506435,127.524198 L226.506435,127.883084 C226.506435,128.959743 225.66906,129.797144 224.592435,129.797144 L224.592435,129.797144 Z" id="Shape" fill="#FFFFFF"></path>
                            <path d="M247.201559,118.073531 L226.14756,129.199 C225.19056,129.677515 224.113935,129.318629 223.635435,128.361599 L223.396185,128.002713 C222.917685,127.045683 223.27656,125.969025 224.23356,125.49051 L245.287559,114.365041 C246.244559,113.886526 247.321184,114.245412 247.799684,115.202442 L248.038934,115.561328 C248.517434,116.518357 248.158559,117.595016 247.201559,118.073531 L247.201559,118.073531 Z" id="Shape" fill="#FFFFFF"></path>
                            <path d="M268.255558,133.146747 L248.756684,119.389446 C247.919309,118.791303 247.680059,117.595016 248.278184,116.757615 L248.517434,116.398729 C249.115559,115.561328 250.311809,115.32207 251.149184,115.920214 L270.648058,129.677515 C271.485433,130.275658 271.724683,131.471945 271.126558,132.309346 L270.887308,132.668232 C270.289183,133.505633 269.092933,133.744891 268.255558,133.146747 L268.255558,133.146747 Z" id="Shape" fill="#FFFFFF"></path>
                            <path d="M293.376807,109.340635 L274.236808,131.95046 C273.519058,132.787861 272.322808,132.787861 271.605058,132.189718 L271.246183,131.95046 C270.408808,131.232688 270.408808,130.036401 271.006933,129.318629 L290.146932,106.708804 C290.864682,105.871403 292.060932,105.871403 292.778682,106.469546 L293.137557,106.708804 C293.974932,107.306947 294.094557,108.503234 293.376807,109.340635 L293.376807,109.340635 Z" id="Shape" fill="#FFFFFF"></path>
                            <path d="M315.387806,95.9422204 L294.931932,107.426576 C293.974932,107.905091 292.898307,107.665833 292.300182,106.708804 L292.060932,106.349918 C291.582432,105.392888 291.821682,104.31623 292.778682,103.718086 L313.234556,92.2337305 C314.191556,91.7552157 315.268181,91.9944731 315.866306,92.9515028 L316.105556,93.3103889 C316.584056,94.2674185 316.225181,95.4637055 315.387806,95.9422204 L315.387806,95.9422204 Z" id="Shape" fill="#FFFFFF"></path>
                            <path d="M336.681055,102.880685 L314.311181,96.0618491 C313.354181,95.702963 312.756056,94.7459333 312.995306,93.669275 L313.114931,93.3103889 C313.473806,92.3533592 314.430806,91.7552157 315.507431,91.9944731 L337.877305,98.8133092 C338.834305,99.1721954 339.43243,100.129225 339.19318,101.205883 L339.073555,101.564769 C338.71468,102.641428 337.75768,103.239571 336.681055,102.880685 L336.681055,102.880685 Z" id="Shape" fill="#FFFFFF"></path>
                            <ellipse id="Oval" fill="#FFFFFF" cx="85.8274416" cy="113.288382" rx="4.66537479" ry="4.66551944"></ellipse>
                            <ellipse id="Oval" fill="#FFFFFF" cx="108.316941" cy="136.974866" rx="4.66537479" ry="4.66551944"></ellipse>
                            <ellipse id="Oval" fill="#FFFFFF" cx="131.165315" cy="115.561328" rx="4.66537479" ry="4.66551944"></ellipse>
                            <ellipse id="Oval" fill="#FFFFFF" cx="154.252939" cy="96.7796213" rx="4.66537479" ry="4.66551944"></ellipse>
                            <ellipse id="Oval" fill="#FFFFFF" cx="177.819062" cy="132.309346" rx="4.66537479" ry="4.66551944"></ellipse>
                            <ellipse id="Oval" fill="#FFFFFF" cx="201.026311" cy="127.643827" rx="4.66537479" ry="4.66551944"></ellipse>
                            <ellipse id="Oval" fill="#FFFFFF" cx="224.592435" cy="127.643827" rx="4.66537479" ry="4.66551944"></ellipse>
                            <ellipse id="Oval" fill="#FFFFFF" cx="247.680059" cy="115.561328" rx="4.66537479" ry="4.66551944"></ellipse>
                            <ellipse id="Oval" fill="#FFFFFF" cx="270.648058" cy="132.309346" rx="4.66537479" ry="4.66551944"></ellipse>
                            <ellipse id="Oval" fill="#FFFFFF" cx="293.735682" cy="105.512517" rx="4.66537479" ry="4.66551944"></ellipse>
                            <ellipse id="Oval" fill="#FFFFFF" cx="314.071931" cy="94.3870472" rx="4.66537479" ry="4.66551944"></ellipse>
                            <ellipse id="Oval" fill="#FFFFFF" cx="337.75768" cy="100.60774" rx="4.66537479" ry="4.66551944"></ellipse>
                        </g>
                    </g>
                    <ellipse id="Oval" fill="#70C2D8" cx="531.789422" cy="201.272336" rx="29.5473737" ry="29.5482898"></ellipse>
                    <ellipse id="Oval" fill="#70C2D8" cx="412.642927" cy="201.272336" rx="29.5473737" ry="29.5482898"></ellipse>
                    <rect id="Rectangle-path" fill="#70C2D8" x="401.996302" y="267.187752" width="20.8147491" height="11.6039843"></rect>
                    <rect id="Rectangle-path" fill="#70C2D8" x="521.382047" y="267.187752" width="20.8147491" height="11.6039843"></rect>
                    <rect id="Rectangle-path" fill="#D1E3ED" x="378.789054" y="128.418455" width="222.98099" height="19.1405926"></rect>
                </g>
            </g>
        </g>
    </g>
</svg>