<?xml version="1.0" encoding="UTF-8" standalone="no"?>
<svg width="320px" height="429px" viewBox="0 0 320 429" version="1.1" xmlns="http://www.w3.org/2000/svg" xmlns:xlink="http://www.w3.org/1999/xlink">
    <!-- Generator: Sketch 3.8.2 (29753) - http://www.bohemiancoding.com/sketch -->
    <title>4</title>
    <desc>Created with Sketch.</desc>
    <defs></defs>
    <g id="Page-1" stroke="none" stroke-width="1" fill="none" fill-rule="evenodd">
        <g id="Identi_Wireframe" transform="translate(-835.000000, -2039.000000)">
            <g id="Services" transform="translate(0.000000, 1372.000000)">
                <g id="Creativity" transform="translate(0.000000, 606.000000)">
                    <g id="4" transform="translate(835.000000, 61.000000)">
                        <g id="Layer_1">
                            <g id="Group">
                                <g id="Shape" fill="#AACAE3">
                                    <path d="M0.5,150.4 C0.5,182.2 7.3,213.3 28,238.1 C48.7,262.9 78.6,283.8 78.6,283.8 L106.2,342.1 L145.2,342 L145.2,0.8 C65.4,0.9 0.5,68 0.5,150.4 L0.5,150.4 Z"></path>
                                    <path d="M145.2,0.9 L145.2,341.1 L193,341.1 L211.7,283.9 C211.7,283.9 241.5,263 262.3,238.2 C283,213.4 289.8,182.3 289.8,150.5 C289.8,68 224.9,0.9 145.2,0.9 L145.2,0.9 Z"></path>
                                </g>
                                <g transform="translate(30.000000, 1.000000)" id="Shape" fill="#D1E3ED">
                                    <path d="M0.2,149.4 C0.2,181.2 7,212.3 27.7,237.1 C48.4,261.9 78.3,282.8 78.3,282.8 L97,341.1 L144.8,341.1 L144.8,0.9 C65.1,1 0.2,67 0.2,149.4 L0.2,149.4 Z"></path>
                                    <path d="M144.9,1 L144.9,341.2 L185.4,341.2 L211.4,282.9 C211.4,282.9 241.2,262 262,237.2 C282.7,212.4 289.5,181.3 289.5,149.5 C289.5,67 224.6,-0.1 144.9,1 L144.9,1 Z"></path>
                                </g>
                            </g>
                            <g id="Group" transform="translate(52.000000, 27.000000)">
                                <g id="bulb_1_" transform="translate(38.000000, 315.000000)">
                                    <path d="M125.4,32.1 C134.2,32.1 141.3,24.9 141.3,16.2 C141.3,7.4 134.1,0.3 125.4,0.3 L16.2,0.3 C7.4,0.3 0.3,7.5 0.3,16.2 C0.3,25 7.5,32.1 16.2,32.1 C7.4,32.1 0.3,39.3 0.3,48 C0.3,56.8 7.5,63.9 16.2,63.9 L38.8,63.9 C38.8,76.2 57.9,86.2 70.2,86.2 L71.3,86.2 C83.6,86.2 102.7,76.2 102.7,63.9 L125.3,63.9 C134.1,63.9 141.2,56.7 141.2,48 C141.3,39.2 134.1,32.1 125.4,32.1 L125.4,32.1 Z" id="Shape" fill="#D1E3ED"></path>
                                    <path d="M71.5,63.9 L61.6,63.9 C52.8,63.9 45.7,56.7 45.7,48 C45.7,39.2 52.9,32.1 61.6,32.1 C52.8,32.1 45.7,24.9 45.7,16.2 C45.7,7.4 52.9,0.3 61.6,0.3 L16.1,0.3 C7.3,0.3 0.2,7.5 0.2,16.2 C0.2,25 7.4,32.1 16.1,32.1 C7.3,32.1 0.2,39.3 0.2,48 C0.2,56.8 7.4,63.9 16.1,63.9 L38.7,63.9 C38.7,76.2 57.8,86.2 70.1,86.2 L71.2,86.2 L71.5,63.9 L71.5,63.9 Z" id="Shape" fill="#AACAE3"></path>
                                </g>
                                <path d="M138,315.3 L138,283.9" id="Shape" stroke="#6FC2D8" stroke-width="13.3032"></path>
                                <circle id="Oval" fill="#258BAF" cx="79.7" cy="208.7" r="46.1"></circle>
                                <circle id="Oval" fill="#6FC2D8" cx="138" cy="263.1" r="27.9"></circle>
                                <circle id="Oval" fill="#AACAE3" cx="152" cy="190" r="42.3"></circle>
                                <path d="M161.1,254.2 L173.7,246.2" id="Shape" stroke="#6FC2D8" stroke-width="7.3542"></path>
                                <circle id="Oval" fill="#6FC2D8" cx="177.9" cy="243.2" r="6.9"></circle>
                                <circle id="Oval" fill="#AACAE3" cx="196.7" cy="222.6" r="5.7"></circle>
                                <circle id="Oval" fill="#258BAF" cx="89.4" cy="278.5" r="9.7"></circle>
                                <circle id="Oval" fill="#6FC2D8" cx="147.5" cy="37.3" r="37.2"></circle>
                                <path d="M133.9,102.4 L133.9,95 C139.4,95 143.8,90.5 143.8,85.1 L143.8,73.6 L151.2,73.6 L151.2,85.1 C151.1,94.7 143.4,102.4 133.9,102.4 L133.9,102.4 Z" id="Shape" fill="#6FC2D8"></path>
                                <circle id="Oval" fill="#258BAF" cx="35.5" cy="109.2" r="34.6"></circle>
                                <circle id="Oval" fill="#258BAF" cx="13.7" cy="155.3" r="10.8"></circle>
                                <circle id="Oval" fill="#6FC2D8" cx="56.9" cy="43.7" r="17.6"></circle>
                                <circle id="Oval" fill="#6FC2D8" cx="111.4" cy="98.8" r="24.4"></circle>
                                <circle id="Oval" fill="#258BAF" cx="199.9" cy="95.6" r="25.5"></circle>
                                <circle id="Oval" fill="#258BAF" cx="214" cy="146.5" r="20.3"></circle>
                                <circle id="Oval" fill="#258BAF" cx="164.2" cy="126.3" r="12.3"></circle>
                                <circle id="Oval" fill="#258BAF" cx="214" cy="185.7" r="9.2"></circle>
                                <circle id="Oval" fill="#6FC2D8" cx="96.2" cy="62" r="9.2"></circle>
                                <circle id="Oval" fill="#6FC2D8" cx="198.4" cy="30.3" r="9.2"></circle>
                                <circle id="Oval" fill="#AACAE3" cx="102.4" cy="143" r="9.2"></circle>
                                <circle id="Oval" fill="#6FC2D8" cx="92.1" cy="15.8" r="15.7"></circle>
                                <path d="M181.8,212.7 L195.4,221.7" id="Shape" stroke="#AACAE3" stroke-width="7.3542"></path>
                                <rect id="Rectangle-path" fill="#258BAF" transform="translate(185.470280, 134.795490) rotate(21.278986) translate(-185.470280, -134.795490) " x="174.270573" y="131.095587" width="22.3994137" height="7.3998063"></rect>
                                <rect id="Rectangle-path" fill="#258BAF" transform="translate(207.974840, 126.214880) rotate(73.583945) translate(-207.974840, -126.214880) " x="196.775247" y="122.515014" width="22.3991869" height="7.39973138"></rect>
                                <rect id="Rectangle-path" fill="#258BAF" transform="translate(179.326610, 111.327370) rotate(48.965535) translate(-179.326610, -111.327370) " x="175.626683" y="100.12759" width="7.39985474" height="22.3995603"></rect>
                                <rect id="Rectangle-path" fill="#6FC2D8" transform="translate(107.947000, 55.315420) rotate(64.531728) translate(-107.947000, -55.315420) " x="104.247096" y="47.7656169" width="7.39980701" height="15.0996062"></rect>
                            </g>
                            <g id="Group" transform="translate(189.000000, 187.000000)">
                                <path d="M5.1,33.2 C4.3,34.2 -0.9,40.5 1,47.6 C1.3,48.7 1.8,50 2.8,51.4 C3,49.6 3.9,45.2 7.5,41.7 C8.8,40.5 10.1,39.6 11.2,39.1 C9.2,37.1 7.1,35.1 5.1,33.2 L5.1,33.2 Z" id="Shape" fill="#258BAF"></path>
                                <path d="M24.9,33.2 C25.7,34.2 30.9,40.5 29,47.6 C28.7,48.7 28.2,50 27.2,51.4 C27,49.6 26.1,45.2 22.5,41.7 C21.2,40.5 19.9,39.6 18.8,39.1 C20.8,37.1 22.8,35.1 24.9,33.2 L24.9,33.2 Z" id="Shape" fill="#258BAF"></path>
                                <path d="M26.5,27 C26.5,34.6 23,49.5 15.4,49.5 C7.8,49.5 4.3,34.7 4.3,27 C4.3,19.4 9.7,0.1 15.4,0.1 C21,0.1 26.5,19.3 26.5,27 L26.5,27 Z" id="Shape" fill="#258BAF"></path>
                                <path d="M15.3,0.1 C21,0.1 26.4,19.3 26.4,27 C26.4,34.6 22.9,49.5 15.3,49.5 L15.3,0.1 L15.3,0.1 Z" id="Shape" fill="#258BAF"></path>
                                <circle id="Oval" fill="#FFFFFF" cx="15.3" cy="20" r="4.7"></circle>
                                <circle id="Oval" fill="#FFFFFF" cx="15.3" cy="30.9" r="2.4"></circle>
                            </g>
                            <path d="M208.8,231.8 L208.8,239.1" id="Shape" stroke="#258BAF" stroke-width="2.0189"></path>
                            <path d="M205.1,239.9 L205.1,247.3" id="Shape" stroke="#258BAF" stroke-width="2.0189"></path>
                            <path d="M200.9,235 L200.9,242.3" id="Shape" stroke="#258BAF" stroke-width="2.0189"></path>
                            <g id="Group" transform="translate(173.000000, 58.000000)">
                                <polygon id="Shape" fill="#FFFFFF" points="45.2 0 45.2 12.7 53.1 6.3"></polygon>
                                <polygon id="Shape" fill="#258BAF" points="50.4 4.2 50.4 8.5 53.1 6.3"></polygon>
                                <rect id="Rectangle-path" fill="#FFFFFF" x="7.1" y="0" width="3" height="12.7"></rect>
                                <rect id="Rectangle-path" fill="#6FC2D8" x="4.9" y="0" width="2.2" height="12.7"></rect>
                                <path d="M4.9,12.7 L2.4,12.7 C1.2,12.7 0.2,11.3 0.2,9.6 L0.2,3.1 C0.2,1.4 1.2,0 2.4,0 L4.9,0" id="Shape" fill="#258BAF"></path>
                                <path d="M2.7,12.7 L2.4,12.7 C1.2,12.7 0.2,11.3 0.2,9.6 L0.2,9.5 L0.2,6.4 L5,6.4 L5,12.7 L2.7,12.7 L2.7,12.7 Z" id="Shape" fill="#258BAF"></path>
                            </g>
                            <polygon id="Shape" fill="#FFFFFF" points="218.2 70.7 218.2 64.3 223.4 64.3 223.4 66.5"></polygon>
                            <path d="M152.5,254 L107.2,254 C106.3,254 105.6,253.3 105.6,252.4 L105.6,249.1 L105.7,248.9 L105.9,224 C105.9,223.1 106.3,222.4 107.2,222.4 L152.5,222.4 C153.4,222.4 154.1,223.2 154.1,224.1 L154.1,249 L154.2,249.2 L154.2,252.5 C154.1,253.3 153.4,254 152.5,254 L152.5,254 Z" id="Shape" fill="#FFFFFF"></path>
                            <path d="M154.1,249.1 L105.5,249.1 L105.5,219.5 C105.5,218.4 106.4,217.5 107.5,217.5 L152.1,217.5 C153.2,217.5 154.1,218.4 154.1,219.5 L154.1,249.1 L154.1,249.1 Z" id="Shape" fill="#AACAE3"></path>
                            <rect id="Rectangle-path" fill="#FFFFFF" x="111.1" y="222.3" width="37.5" height="22"></rect>
                            <circle id="Oval" fill="#AACAE3" cx="129.8" cy="251.5" r="1.1"></circle>
                            <rect id="Rectangle-path" fill="#FFFFFF" x="124.7" y="253.2" width="10.2" height="7"></rect>
                            <rect id="Rectangle-path" fill="#FFFFFF" x="123.7" y="259.6" width="12.3" height="0.9"></rect>
                            <rect id="Rectangle-path" fill="#6FC2D8" x="126.3" y="225.1" width="18.9" height="19.2"></rect>
                            <rect id="Rectangle-path" fill="#6FC2D8" x="113.8" y="234.4" width="6.5" height="9.9"></rect>
                            <path d="M205,290.1 C205,290.1 198.3,298.2 190,298.2 C181.7,298.2 175,290.1 175,290.1 C175,290.1 181.7,282 190,282 C198.3,282 205,290.1 205,290.1 L205,290.1 Z" id="Shape" fill="#FFFFFF"></path>
                            <circle id="Oval" fill="#258BAF" cx="190" cy="290.1" r="4.2"></circle>
                            <polygon id="Shape" fill="#FFFFFF" points="80.8 131.4 74.1 123.9 67.3 131.4"></polygon>
                            <polygon id="Shape" fill="#6FC2D8" points="67.3 131.4 87.5 153.1 107.8 131.4"></polygon>
                            <polygon id="Shape" fill="#FFFFFF" points="107.7 131.4 101 123.9 94.2 131.4"></polygon>
                            <polygon id="Shape" fill="#6FC2D8" points="74.1 123.9 80.8 131.4 87.5 123.9"></polygon>
                            <polygon id="Shape" fill="#6FC2D8" points="87.5 123.9 94.2 131.4 101 123.9"></polygon>
                            <polygon id="Shape" fill="#FFFFFF" points="87.5 123.9 80.8 131.4 87.5 153.1 94.2 131.4"></polygon>
                            <rect id="Rectangle-path" fill="#258BAF" x="183.1" y="58" width="35.1" height="12.7"></rect>
                            <rect id="Rectangle-path" fill="#6FC2D8" transform="translate(161.753625, 48.779695) rotate(18.935019) translate(-161.753625, -48.779695) " x="157.103562" y="45.0796449" width="9.30012583" height="7.40010012"></rect>
                            <path d="M73.3,164.9 L69,174.1" id="Shape" stroke="#258BAF" stroke-width="7.3542" fill="#258BAF"></path>
                            <rect id="Rectangle-path" fill="#6FC2D8" transform="translate(127.587580, 55.204560) rotate(52.577777) translate(-127.587580, -55.204560) " x="123.887482" y="47.8043642" width="7.40019584" height="14.8003917"></rect>
                            <rect id="Rectangle-path" fill="#6FC2D8" transform="translate(239.218140, 59.039900) rotate(83.702199) translate(-239.218140, -59.039900) " x="235.51801" y="55.1397633" width="7.40025933" height="7.80027335"></rect>
                            <rect id="Rectangle-path" fill="#258BAF" x="262.4" y="193" width="7.4" height="12.1"></rect>
                            <polygon id="Shape" fill="#6FC2D8" points="241.4 115.6 241.4 129.6 244.6 129.6 244.6 132.7 248.9 129.6 263.2 129.6 263.2 115.6"></polygon>
                            <path d="M246.1,120.7 L258.5,120.7" id="Shape" stroke="#FFFFFF" stroke-width="1.6343" fill="#FFFFFF"></path>
                            <path d="M246.1,124.8 L258.5,124.8" id="Shape" stroke="#FFFFFF" stroke-width="1.6343" fill="#FFFFFF"></path>
                            <path d="M116.3,194.4 L100.8,161.6" id="Shape" stroke="#258BAF" stroke-width="9" fill="#258BAF"></path>
                            <path d="M141.4,313 L141.4,342.2" id="Shape" stroke="#258BAF" stroke-width="9" fill="#258BAF"></path>
                        </g>
                    </g>
                </g>
            </g>
        </g>
    </g>
</svg>