<?xml version="1.0" encoding="UTF-8" standalone="no"?>
<svg width="43px" height="38px" viewBox="0 0 43 38" version="1.1" xmlns="http://www.w3.org/2000/svg" xmlns:xlink="http://www.w3.org/1999/xlink">
    <!-- Generator: Sketch 3.8.2 (29753) - http://www.bohemiancoding.com/sketch -->
    <title>Layer_1</title>
    <desc>Created with Sketch.</desc>
    <defs></defs>
    <g id="Page-1" stroke="none" stroke-width="1" fill="none" fill-rule="evenodd">
        <g id="Identi_Wireframe" transform="translate(-699.000000, -1372.000000)">
            <g id="Services" transform="translate(0.000000, 1372.000000)">
                <g id="Header" transform="translate(631.000000, 0.000000)">
                    <g id="Secret-Sauce">
                        <g id="Group-3">
                            <g id="2" transform="translate(68.000000, 0.000000)">
                                <g id="Layer_1">
                                    <g id="sauce_1_">
                                        <g id="sauce" fill="#6FC2D8">
                                            <path d="M14.0278689,33.9185185 L10.5737705,36.7333333 L10.5737705,36.7333333 L10.5737705,36.7333333 C9.23442623,37.7888889 7.33114754,37.5074074 6.3442623,36.1703704 C5.28688525,34.8333333 5.56885246,32.9333333 6.90819672,31.9481481 L6.90819672,31.9481481 L9.65737705,29.837037 C10.3622951,29.2740741 10.5032787,28.2888889 9.93934426,27.5851852 C9.37540984,26.8814815 8.38852459,26.7407407 7.68360656,27.3037037 L6.90819672,27.8666667 L6.90819672,27.8666667 C6.90819672,27.8666667 6.90819672,27.8666667 6.83770492,27.8666667 C6.06229508,28.4296296 5.00491803,28.2888889 4.3704918,27.5851852 C3.80655738,26.8111111 3.94754098,25.7555556 4.65245902,25.1222222 L4.65245902,25.1222222 L7.82459016,22.7296296 C8.31803279,22.3777778 8.38852459,21.6740741 8.03606557,21.2518519 C7.68360656,20.7592593 6.97868852,20.6888889 6.5557377,21.0407407 L6.5557377,21.0407407 L5.07540984,21.9555556 C4.2295082,22.6592593 2.96065574,22.4481481 2.2557377,21.6037037 C1.55081967,20.7592593 1.76229508,19.4925926 2.60819672,18.7888889 L15.8606557,8.65555556 L15.7196721,11.2592593 L28.9016393,1.05555556 C29.8180328,0.351851852 31.157377,0.492592593 31.9327869,1.40740741 C32.7081967,2.32222222 32.4967213,3.65925926 31.5803279,4.43333333 L28.6196721,6.75555556 C28.3377049,6.96666667 28.3377049,7.31851852 28.4786885,7.6 C28.6901639,7.88148148 29.042623,7.95185185 29.042623,7.95185185 L34.752459,3.58888889 C36.9377049,1.9 40.0393443,2.32222222 41.7311475,4.5037037 C43.4229508,6.68518519 43,9.78148148 40.8147541,11.4703704 L35.0344262,15.9740741 C34.5409836,16.3962963 34.4704918,17.1 34.8229508,17.5925926 C35.2459016,18.0851852 35.9508197,18.1555556 36.4442623,17.8037037 L38.347541,16.3259259 L38.347541,16.3259259 C38.8409836,15.9037037 39.5459016,16.0444444 39.9688525,16.537037 C40.3918033,17.0296296 40.2508197,17.7333333 39.757377,18.1555556 L39.757377,18.1555556 L39.757377,18.1555556 L25.3065574,29.3444444" id="Shape"></path>
                                            <ellipse id="Oval" cx="15.5081967" cy="8.02222222" rx="4.65245902" ry="4.64444444"></ellipse>
                                            <ellipse id="Oval" cx="31.7213115" cy="26.037037" rx="3.03114754" ry="3.02592593"></ellipse>
                                            <ellipse id="Oval" cx="41.4491803" cy="15.2" rx="1.05737705" ry="1.05555556"></ellipse>
                                            <ellipse id="Oval" cx="1.62131148" cy="29.062963" rx="1.55081967" ry="1.54814815"></ellipse>
                                        </g>
                                        <polygon id="Shape" fill="#4A586D" points="17.904918 3.0962963 17.904918 6.96666667 14.5213115 11.8925926 12.6885246 14.4259259 12.6885246 32.5814815 13.5344262 34.5518519 15.2967213 36.4518519 19.5967213 37.2259259 25.8704918 37.2259259 28.8311475 35.6074074 30.3819672 32.3703704 30.3819672 23.7851852 30.3819672 15.6222222 29.9590164 13.5111111 25.3065574 7.10740741 25.2360656 3.51851852"></polygon>
                                        <path d="M25.2360656,3.51851852 L17.8344262,3.51851852 C17.2,3.51851852 16.7065574,3.02592593 16.7065574,2.39259259 L16.7065574,1.68888889 C16.7065574,1.05555556 17.2,0.562962963 17.8344262,0.562962963 L25.2360656,0.562962963 C25.8704918,0.562962963 26.3639344,1.05555556 26.3639344,1.68888889 L26.3639344,2.39259259 C26.3639344,3.02592593 25.8704918,3.51851852 25.2360656,3.51851852 L25.2360656,3.51851852 Z" id="Shape" stroke="#258BAF" fill="#258BAF"></path>
                                        <path d="M30.5229508,13.0888889 L30.5229508,13.0888889 L25.3065574,6.54444444 L25.3065574,3.8 L24.5311475,3.8 L24.5311475,7.10740741 L29.1836066,13.5814815 L29.1836066,13.5814815 C29.5360656,14.0037037 29.747541,14.5666667 29.747541,15.1296296 L29.747541,31.6666667 C29.747541,34.2 27.7032787,36.2407407 25.1655738,36.2407407 L17.9754098,36.2407407 C15.4377049,36.2407407 13.3934426,34.2 13.3934426,31.6666667 L13.3934426,15.1296296 C13.3934426,14.5666667 13.604918,14.1444444 13.8868852,13.7222222 L18.6098361,7.10740741 L18.5393443,3.87037037 L17.7639344,3.8 L17.7639344,6.61481481 L13.0409836,12.5259259 C12.4065574,13.2296296 11.9836066,14.1444444 11.9836066,15.2 L11.9836066,31.737037 C11.9836066,35.0444444 14.6622951,37.7185185 17.9754098,37.7185185 L25.1655738,37.7185185 C28.4786885,37.7185185 31.157377,35.0444444 31.157377,31.737037 L31.157377,15.2 C31.157377,14.4259259 30.9459016,13.7222222 30.5229508,13.0888889 L30.5229508,13.0888889 Z" id="Shape" fill="#4A586D"></path>
                                        <rect id="Rectangle-path" fill="#D1E3ED" x="11.9836066" y="16.4666667" width="19.1737705" height="12.5962963"></rect>
                                        <polygon id="Shape" fill="#D1E3ED" points="25.7295082 7.10740741 17.3409836 7.17777778 17.6934426 6.61481481 17.6934426 4.71481481 25.3065574 4.71481481 25.3065574 6.61481481"></polygon>
                                    </g>
                                    <path d="M21,7.56737589 L21,7.56737589 L25.6258503,13.5957447 L25.6258503,13.5957447 C25.9659864,14.2340426 26.2380952,14.9432624 26.2380952,15.7234043 L26.2380952,17 L31,17 L31,15.7234043 C31,14.9432624 30.7959184,14.2340426 30.3877551,13.5957447 L30.3877551,13.5957447 L25.7619048,7.56737589 L25.7619048,7.56737589 L25.3537415,7" id="Shape" fill="#303944"></path>
                                    <path d="M26.0322581,29 L26.0322581,31.7295082 C26.0322581,35.1967213 23.3354839,38 20,38 L24.9677419,38 C28.3032258,38 31,35.1967213 31,31.7295082 L31,29 L26.0322581,29 L26.0322581,29 Z" id="Shape" fill="#303944"></path>
                                    <path d="M21.0713787,0 L25.5682397,0 C26.2106484,0 27.0671933,0.62745098 26.9958146,1.49019608 L26.9958146,2.66666667 C26.9958146,3.37254902 26.2106484,4 25.5682397,4 L25.5682397,4 L21,4 L21,3.60784314" id="Shape" fill="#06698C"></path>
                                    <polygon id="Shape" fill="#A7B5BC" points="26 7 21 7 21 5 25.5714286 5 25.5714286 6.58823529"></polygon>
                                    <polygon id="Shape" fill="#A7B5BC" points="31 29 26 29 26 16 31 16"></polygon>
                                    <rect id="Rectangle-path" fill="#303944" x="21" y="4" width="5" height="1"></rect>
                                    <path d="M40.3333333,30.3333333 L38.8,30.1333333 L38.6666667,28.6666667 C38.6666667,28.2666667 38.4,28 38,28 C37.6,28 37.3333333,28.2666667 37.3333333,28.6666667 L37.1333333,30.1333333 L35.6666667,30.3333333 C35.2666667,30.3333333 35,30.6 35,31 C35,31.4 35.2666667,31.6666667 35.6666667,31.6666667 L37.2,31.8 L37.3333333,33.3333333 C37.3333333,33.7333333 37.6,34 38,34 C38.4,34 38.6666667,33.7333333 38.6666667,33.3333333 L38.8,31.8 L40.3333333,31.6666667 C40.7333333,31.6666667 41,31.4 41,31 C41,30.6 40.7333333,30.3333333 40.3333333,30.3333333 L40.3333333,30.3333333 Z" id="Shape" fill="#6FC2D8"></path>
                                    <path d="M7.33333333,7.33333333 L5.8,7.13333333 L5.66666667,5.66666667 C5.66666667,5.26666667 5.4,5 5,5 C4.6,5 4.33333333,5.26666667 4.33333333,5.66666667 L4.13333333,7.13333333 L2.66666667,7.33333333 C2.26666667,7.33333333 2,7.6 2,8 C2,8.4 2.26666667,8.66666667 2.66666667,8.66666667 L4.2,8.8 L4.33333333,10.3333333 C4.33333333,10.7333333 4.6,11 5,11 C5.4,11 5.66666667,10.7333333 5.66666667,10.3333333 L5.8,8.8 L7.33333333,8.66666667 C7.73333333,8.66666667 8,8.4 8,8 C8,7.6 7.66666667,7.33333333 7.33333333,7.33333333 L7.33333333,7.33333333 Z" id="Shape" fill="#6FC2D8"></path>
                                </g>
                            </g>
                        </g>
                    </g>
                </g>
            </g>
        </g>
    </g>
</svg>