<?xml version="1.0" encoding="UTF-8" standalone="no"?>
<svg width="515px" height="319px" viewBox="0 0 515 319" version="1.1" xmlns="http://www.w3.org/2000/svg" xmlns:xlink="http://www.w3.org/1999/xlink">
    <!-- Generator: Sketch 3.8.2 (29753) - http://www.bohemiancoding.com/sketch -->
    <title>Layer_1</title>
    <desc>Created with Sketch.</desc>
    <defs></defs>
    <g id="Page-1" stroke="none" stroke-width="1" fill="none" fill-rule="evenodd">
        <g id="Identi_Wireframe" transform="translate(-790.000000, -3215.000000)">
            <g id="Services" transform="translate(0.000000, 1372.000000)">
                <g id="Data" transform="translate(0.000000, 1724.000000)">
                    <g id="6" transform="translate(790.000000, 119.000000)">
                        <g id="Layer_1">
                            <path d="M5.4,219 C3.1,219 1.3,217.2 1.3,214.9 C1.3,212.6 3.1,210.8 5.4,210.8 L15.9,210.8 C19.1,210.8 21.7,208.2 21.7,204.9 C21.7,201.7 19.1,199 15.8,199 L11.2,199 C8.9,199 7.1,197.2 7.1,194.9 C7.1,192.6 8.9,190.8 11.2,190.8 L19.2,190.8 C19.9,190.8 20.5,190 20.5,189 C20.5,188 19.9,187.2 19.2,187.2 L10.3,187.2 L8.4,187.2 C3.8,187.2 0.1,183.5 0.1,178.9 C0.1,174.3 3.8,170.6 8.4,170.6 L61,170.6 C65.6,170.6 69.3,174.3 69.3,178.9 C69.3,183.5 65.6,187.2 61,187.2 L58.2,187.2 L29.3,187.2 C28.6,187.2 28,188 28,189 C28,190 28.6,190.8 29.3,190.8 L48.5,190.8 C49.1,190.7 49.7,190.7 50.3,190.7 C58.1,190.7 64.4,197 64.4,204.8 C64.4,212.6 58.1,218.9 50.3,218.9 L5.4,218.9 L5.4,219 Z" id="Shape" fill="#AACAE3"></path>
                            <path d="M450.7,151.9 C442.2,143.7 432.4,137.7 421.9,134.1 C430,98.3 419.8,59.2 391.6,31.7 C348.4,-10.5 279.1,-9.6 237,33.6 C226.2,44.6 218.3,57.3 213.1,70.8 C210.5,67 207.6,63.4 204.2,60.1 C177.5,34.1 134.8,34.6 108.8,61.3 C89.9,80.7 85,108.6 94,132.3 C82.9,135.4 72.5,141.3 63.9,150.1 C37.9,176.8 38.4,219.5 65.1,245.5 C85.1,265 114,269.6 138.2,259.5 C143.5,269.1 150.2,278.2 158.5,286.2 C203,329.6 274.3,328.8 317.7,284.2 C325.6,276.1 332.1,267 337.1,257.5 C338.7,259.4 340.4,261.2 342.2,263 C372.9,293 422.1,292.4 452.1,261.7 C482,231 481.4,181.8 450.7,151.9 L450.7,151.9 Z" id="Shape" fill="#AACAE3"></path>
                            <path d="M490.7,151.9 C482.2,143.7 472.4,137.7 461.9,134.1 C470,98.3 459.8,59.2 431.6,31.7 C388.4,-10.5 319.1,-9.6 277,33.6 C266.2,44.6 258.3,57.3 253.1,70.8 C250.5,67 247.6,63.4 244.2,60.1 C217.5,34.1 174.8,34.6 148.8,61.3 C129.9,80.7 125,108.6 134,132.3 C122.9,135.4 112.5,141.3 103.9,150.1 C77.9,176.8 78.4,219.5 105.1,245.5 C125.1,265 154,269.6 178.2,259.5 C183.5,269.1 190.2,278.2 198.5,286.2 C243,329.6 314.3,328.8 357.7,284.2 C365.6,276.1 372.1,267 377.1,257.5 C378.7,259.4 380.4,261.2 382.2,263 C412.9,293 462.1,292.4 492.1,261.7 C522,231 521.4,181.8 490.7,151.9 L490.7,151.9 Z" id="Shape" fill="#D1E3ED"></path>
                            <g id="Group" transform="translate(324.000000, 35.000000)">
                                <circle id="Oval" fill="#258BAF" cx="44.2" cy="44.5" r="43.7"></circle>
                                <circle id="Oval" fill="#6FC2D8" cx="44.2" cy="30.8" r="11.8"></circle>
                                <path d="M25.9,64.1 L25.9,55 C25.9,48.1 31.5,42.5 38.4,42.5 L49.9,42.5 C56.8,42.5 62.4,48.1 62.4,55 L62.4,64.1 L25.9,64.1 L25.9,64.1 Z" id="Shape" fill="#6FC2D8"></path>
                                <path d="M70.8,36.7 L67.6,36.3 L67.3,33.2 C67.3,32.4 66.7,31.8 65.9,31.8 C65.1,31.8 64.5,32.4 64.5,33.2 L64.1,36.3 L60.9,36.8 C60.1,36.8 59.5,37.4 59.5,38.2 C59.5,39 60.1,39.6 60.9,39.6 L64.2,39.9 L64.5,43.1 C64.5,43.9 65.1,44.5 65.9,44.5 C66.7,44.5 67.3,43.9 67.3,43.1 L67.6,39.9 L70.8,39.6 C71.6,39.6 72.2,39 72.2,38.2 C72.2,37.4 71.6,36.7 70.8,36.7 L70.8,36.7 Z" id="Shape" fill="#FFFFFF"></path>
                            </g>
                            <circle id="Oval" fill="#6FC2D8" cx="265.8" cy="243.8" r="33.7"></circle>
                            <circle id="Oval" fill="#258BAF" cx="265.8" cy="233.2" r="9.1"></circle>
                            <path d="M251.7,258.9 L251.7,251.9 C251.7,246.6 256,242.3 261.3,242.3 L270.2,242.3 C275.5,242.3 279.8,246.6 279.8,251.9 L279.8,258.9 L251.7,258.9 L251.7,258.9 Z" id="Shape" fill="#258BAF"></path>
                            <path d="M286.3,237.8 L283.8,237.5 L283.6,235.1 C283.6,234.5 283.1,234 282.5,234 C281.9,234 281.4,234.5 281.4,235.1 L281.1,237.5 L278.6,237.9 C278,237.9 277.5,238.4 277.5,239 C277.5,239.6 278,240.1 278.6,240.1 L281.1,240.3 L281.3,242.8 C281.3,243.4 281.8,243.9 282.4,243.9 C283,243.9 283.5,243.4 283.5,242.8 L283.7,240.3 L286.2,240.1 C286.8,240.1 287.3,239.6 287.3,239 C287.4,238.3 286.9,237.8 286.3,237.8 L286.3,237.8 Z" id="Shape" fill="#FFFFFF"></path>
                            <g id="Group" transform="translate(123.000000, 159.000000)">
                                <circle id="Oval" fill="#6FC2D8" cx="38.1" cy="37.9" r="37.5"></circle>
                                <rect id="Rectangle-path" fill="#FFFFFF" x="21.8" y="39.6" width="8.1" height="13.6"></rect>
                                <rect id="Rectangle-path" fill="#FFFFFF" x="38.1" y="31.9" width="8.1" height="21.3"></rect>
                                <rect id="Rectangle-path" fill="#FFFFFF" x="54.4" y="47.2" width="8.1" height="6.1"></rect>
                                <rect id="Rectangle-path" fill="#258BAF" x="29.9" y="34.4" width="8.1" height="18.8"></rect>
                                <rect id="Rectangle-path" fill="#258BAF" x="13.6" y="49" width="8.1" height="4.2"></rect>
                                <rect id="Rectangle-path" fill="#258BAF" x="46.2" y="18.5" width="8.1" height="34.7"></rect>
                                <path d="M14.6,21.9 L24.5,21.9" id="Shape" stroke="#FFFFFF" stroke-width="1.7402"></path>
                                <path d="M14.6,25.9 L24.5,25.9" id="Shape" stroke="#FFFFFF" stroke-width="1.7402"></path>
                                <path d="M14.6,29.9 L24.5,29.9" id="Shape" stroke="#FFFFFF" stroke-width="1.7402"></path>
                            </g>
                            <g id="Group" transform="translate(154.000000, 64.000000)">
                                <circle id="Oval" fill="#AACAE3" cx="45.4" cy="45.2" r="44.9"></circle>
                                <rect id="Rectangle-path" fill="#FFFFFF" x="27.6" y="21.7" width="35.7" height="32.5"></rect>
                                <path d="M64.1,59 L26.8,59 C25.5,59 24.4,57.9 24.4,56.6 L24.4,56.6 C24.4,55.3 25.5,54.2 26.8,54.2 L64.1,54.2 C65.4,54.2 66.5,55.3 66.5,56.6 L66.5,56.6 C66.4,57.9 65.4,59 64.1,59 L64.1,59 Z" id="Shape" fill="#258BAF"></path>
                                <path d="M38.7,58.8 L34.4,71.3 C34,72.5 32.6,73.2 31.4,72.8 L31.4,72.8 C30.2,72.4 29.5,71 29.9,69.8 L34.2,57.3 C34.6,56.1 36,55.4 37.2,55.8 L37.2,55.8 C38.5,56.2 39.2,57.5 38.7,58.8 L38.7,58.8 Z" id="Shape" fill="#258BAF"></path>
                                <path d="M52,58.8 L56.3,71.3 C56.7,72.5 58.1,73.2 59.3,72.8 L59.3,72.8 C60.5,72.4 61.2,71 60.8,69.8 L56.5,57.3 C56.1,56.1 54.7,55.4 53.5,55.8 L53.5,55.8 C52.3,56.2 51.6,57.5 52,58.8 L52,58.8 Z" id="Shape" fill="#258BAF"></path>
                                <path d="M47.7,21.6 L43.2,21.6 C42.4,21.6 41.7,20.9 41.7,20.1 L41.7,20.1 C41.7,19.3 42.4,18.6 43.2,18.6 L47.7,18.6 C48.5,18.6 49.2,19.3 49.2,20.1 L49.2,20.1 C49.2,20.9 48.5,21.6 47.7,21.6 L47.7,21.6 Z" id="Shape" fill="#258BAF"></path>
                                <rect id="Rectangle-path" fill="#258BAF" x="41" y="21.6" width="8.8" height="3.6"></rect>
                                <polyline id="Shape" stroke="#6FC2D8" stroke-width="2.7233" points="32.7 45.2 37.6 37.9 43.1 44.4 47.2 37.2 52.4 43.8 57.1 33.3"></polyline>
                            </g>
                            <g id="Group" transform="translate(295.000000, 147.000000)">
                                <circle id="Oval" fill="#6FC2D8" cx="33.6" cy="33" r="33"></circle>
                                <path d="M37.9,39.5 C37.9,38.4 37.6,37.5 37,36.8 C36.4,36.1 35.3,35.5 33.8,34.9 C32.3,34.3 31,33.8 29.9,33.2 C28.8,32.6 27.9,32 27.1,31.3 C26.3,30.6 25.7,29.7 25.3,28.7 C24.9,27.7 24.6,26.5 24.6,25.2 C24.6,22.9 25.3,20.9 26.8,19.4 C28.3,17.9 30.3,17 32.8,16.8 L32.8,12.4 L36.1,12.4 L36.1,16.9 C38.6,17.2 40.5,18.3 41.9,20 C43.3,21.7 44,23.9 44,26.6 L38,26.6 C38,24.9 37.7,23.7 37,22.9 C36.3,22.1 35.4,21.7 34.2,21.7 C33.1,21.7 32.2,22 31.6,22.7 C31,23.3 30.7,24.2 30.7,25.4 C30.7,26.5 31,27.3 31.6,27.9 C32.2,28.5 33.3,29.2 35,29.9 C36.7,30.6 38,31.2 39.1,31.8 C40.2,32.4 41.1,33.1 41.8,33.8 C42.5,34.5 43.1,35.4 43.5,36.3 C43.9,37.2 44.1,38.4 44.1,39.6 C44.1,42 43.4,43.9 41.9,45.3 C40.4,46.8 38.4,47.6 35.8,47.9 L35.8,52 L32.5,52 L32.5,47.9 C29.7,47.6 27.5,46.6 25.9,44.9 C24.3,43.2 23.6,40.9 23.6,38.1 L29.6,38.1 C29.6,39.7 30,41 30.8,41.9 C31.6,42.8 32.7,43.2 34.2,43.2 C35.4,43.2 36.4,42.9 37.1,42.2 C37.5,41.5 37.9,40.6 37.9,39.5 L37.9,39.5 Z" id="Shape" fill="#258BAF"></path>
                            </g>
                            <path d="M72.9,175.1 L66.4,175.1 C62.1,175.1 58.6,171.6 58.6,167.3 C58.6,163 62.1,159.5 66.4,159.5 L69.2,159.5 L82.2,159.5 L112.7,159.6 C112.7,159.6 114,162.8 114.6,167.1 C115.2,171.4 115.4,173.8 115.5,175.2 L82.9,175.2 L72.9,175.2 L72.9,175.1 Z" id="Shape" fill="#D1E3ED"></path>
                            <path d="M80.9,192.8 L75.6,192.8 C72.1,192.8 69.2,189.9 69.2,186.4 C69.2,182.9 72.1,180 75.6,180 L77.9,180 L88.5,180 L113.3,180.1 C113.3,180.1 114.4,182.7 114.8,186.2 C115.3,189.7 115.4,191.7 115.5,192.8 L89,192.8 L80.9,192.8 L80.9,192.8 Z" id="Shape" fill="#D1E3ED"></path>
                            <circle id="Oval" fill="#258BAF" cx="295.6" cy="87.4" r="14.8"></circle>
                            <circle id="Oval" fill="#258BAF" cx="409.3" cy="145.9" r="11.1"></circle>
                            <circle id="Oval" fill="#6FC2D8" cx="387.6" cy="195.5" r="18"></circle>
                            <circle id="Oval" fill="#6FC2D8" cx="289.5" cy="131.5" r="15.3"></circle>
                            <circle id="Oval" fill="#AACAE3" cx="250.1" cy="170.7" r="24.8"></circle>
                            <circle id="Oval" fill="#AACAE3" cx="336.2" cy="243.8" r="13.8"></circle>
                            <g id="Group" transform="translate(245.000000, 157.000000)" stroke="#258BAF" stroke-width="1.5">
                                <path d="M9.6,4.4 L9.6,23.3" id="Shape"></path>
                                <path d="M9.6,23.3 C9.6,25.5 7.6,27.2 5.1,27.2 C2.6,27.2 0.6,25.5 0.6,23.3" id="Shape"></path>
                                <path d="M7.1,19.7 C7.1,20.7 6.2,21.5 5.1,21.5 C4,21.5 3.1,20.7 3.1,19.7" id="Shape"></path>
                                <path d="M0.5,3 L0.5,23.3" id="Shape"></path>
                                <path d="M3,4.4 L3,19.7" id="Shape"></path>
                                <path d="M7.1,19.7 L7.1,3" id="Shape"></path>
                                <path d="M0.5,3 C0.5,1.4 2,0.2 3.8,0.2 C5.6,0.2 7.1,1.5 7.1,3" id="Shape"></path>
                            </g>
                            <circle id="Oval" fill="#258BAF" cx="446.8" cy="211.4" r="35"></circle>
                            <rect id="Rectangle-path" fill="#6FC2D8" x="432.1" y="195.2" width="29.5" height="10.8"></rect>
                            <rect id="Rectangle-path" fill="#FFFFFF" x="432.1" y="206" width="29.5" height="10.8"></rect>
                            <rect id="Rectangle-path" fill="#D1E3ED" x="432.1" y="216.8" width="29.5" height="10.8"></rect>
                            <circle id="Oval" fill="#258BAF" cx="436.4" cy="202" r="1.4"></circle>
                            <circle id="Oval" fill="#258BAF" cx="436.4" cy="212.8" r="1.4"></circle>
                            <circle id="Oval" fill="#258BAF" cx="436.4" cy="223.6" r="1.4"></circle>
                            <path d="M452.4,198.1 L452.4,203.2" id="Shape" stroke="#258BAF" stroke-width="2"></path>
                            <path d="M457.4,198.1 L457.4,203.2" id="Shape" stroke="#258BAF" stroke-width="2"></path>
                            <path d="M452.4,208.9 L452.4,214" id="Shape" stroke="#258BAF" stroke-width="2"></path>
                            <path d="M457.4,208.9 L457.4,214" id="Shape" stroke="#258BAF" stroke-width="2"></path>
                            <path d="M452.7,219.7 L452.7,224.8" id="Shape" stroke="#258BAF" stroke-width="2"></path>
                            <path d="M457.7,219.7 L457.7,224.8" id="Shape" stroke="#258BAF" stroke-width="2"></path>
                            <path d="M325.3,84.2 L306.1,86.4" id="Shape" stroke="#258BAF" stroke-width="9"></path>
                            <path d="M375.5,192.8 L356.5,189" id="Shape" stroke="#6FC2D8" stroke-width="9"></path>
                            <path d="M225.2,142.8 L235.4,154.1" id="Shape" stroke="#AACAE3" stroke-width="9"></path>
                            <path d="M305.6,200.7 L285.7,222.2" id="Shape" stroke="#6FC2D8" stroke-width="9"></path>
                            <path d="M192.7,212.6 L235.6,232.8" id="Shape" stroke="#6FC2D8" stroke-width="9"></path>
                            <path d="M308.3,154.1 L296.6,140.7" id="Shape" stroke="#6FC2D8" stroke-width="9"></path>
                        </g>
                    </g>
                </g>
            </g>
        </g>
    </g>
</svg>