<?xml version="1.0" encoding="UTF-8" standalone="no"?>
<svg width="537px" height="344px" viewBox="0 0 537 344" version="1.1" xmlns="http://www.w3.org/2000/svg" xmlns:xlink="http://www.w3.org/1999/xlink">
    <!-- Generator: Sketch 3.8.2 (29753) - http://www.bohemiancoding.com/sketch -->
    <title>brain_icon</title>
    <desc>Created with Sketch.</desc>
    <defs></defs>
    <g id="Page-1" stroke="none" stroke-width="1" fill="none" fill-rule="evenodd">
        <g id="Identi_Wireframe" transform="translate(-135.000000, -1535.000000)">
            <g id="Services" transform="translate(0.000000, 1372.000000)">
                <g id="Expertise" transform="translate(135.000000, 163.000000)">
                    <g id="brain_icon">
                        <path d="M0.9,225.4 C-2.2,179.5 34.6,25 261.2,15 C487.9,5 507.2,255.5 437.8,306.6 C370.8,355.9 244.3,358.6 250.5,297.6 L57.5,296.4 C57.5,296.4 5.3,292 0.9,225.4 L0.9,225.4 Z" id="Shape" fill="#AACAE3"></path>
                        <path d="M32,225.4 C28.9,179.5 65.7,25 292.3,15 C505,5.7 525.5,198.2 472,275 C472,275 464.8,274.1 464.8,277.7 C464.8,281.2 468,280.5 468,280.5 C468,280.5 463.2,286.2 460.5,288.8 C400.6,346.5 275.5,358.7 281.7,297.7 L88.7,296.5 C88.7,296.4 36.5,292 32,225.4 L32,225.4 Z" id="Shape" fill="#D1E3ED"></path>
                        <circle id="Oval" fill="#D1E3ED" cx="460.4" cy="136.9" r="42.8"></circle>
                        <circle id="Oval" fill="#D1E3ED" cx="217.4" cy="271.6" r="42.6"></circle>
                        <circle id="Oval" fill="#D1E3ED" cx="160.8" cy="282.6" r="22.6"></circle>
                        <circle id="Oval" fill="#D1E3ED" cx="456.3" cy="78.2" r="15.1"></circle>
                        <path d="M511.3,280.3 L452,280.3 C448.9,280.3 446.4,282.8 446.4,285.9 C446.4,289 448.9,291.5 452,291.5 L452,291.5 L511.4,291.5 L511.4,291.5 C514.5,291.5 517,289 517,285.9 C516.9,282.9 514.4,280.3 511.3,280.3 L511.3,280.3 Z" id="Shape" fill="#D1E3ED"></path>
                        <path d="M454.8,191.3 L395.4,191.3 C392.3,191.3 389.8,193.8 389.8,196.9 C389.8,200 392.3,202.5 395.4,202.5 L395.4,202.5 L454.8,202.5 L454.8,202.5 C457.9,202.5 460.4,200 460.4,196.9 C460.4,193.9 457.9,191.3 454.8,191.3 L454.8,191.3 Z" id="Shape" fill="#6FC2D8"></path>
                        <path d="M238.7,240.7 L190.4,240.7 C187.9,240.7 185.8,242.7 185.8,245.3 C185.8,247.8 187.8,249.9 190.4,249.9 L190.4,249.9 L238.7,249.9 L238.7,249.9 C241.2,249.9 243.3,247.9 243.3,245.3 C243.2,242.7 241.2,240.7 238.7,240.7 L238.7,240.7 Z" id="Shape" fill="#6FC2D8"></path>
                        <path d="M389.9,151.9 L311.7,151.9 C308.6,151.9 306,154.4 306,157.6 C306,160.7 308.5,163.3 311.7,163.3 L328.2,163.3 C332.6,163.3 336.3,166.9 336.3,171.4 C336.3,175.8 332.7,179.4 328.3,179.4 L303.6,179.4 C300.5,179.4 298,181.9 298,185 C298,188.1 300.5,190.6 303.6,190.6 L363,190.6 C366.1,190.6 368.6,188.1 368.6,185 C368.6,181.9 366.1,179.4 363,179.4 L359,179.4 C354.6,179.4 351,175.8 351,171.4 C351,167 354.6,163.3 359.1,163.3 L390,163.3 C393.1,163.3 395.7,160.8 395.7,157.6 C395.6,154.4 393.1,151.9 389.9,151.9 L389.9,151.9 Z" id="Shape" fill="#6FC2D8"></path>
                        <path d="M499.7,247.7 L468.9,247.7 C473.3,247.7 477,251.3 477,255.8 C477,260.3 473.4,263.9 468.9,263.9 L499.7,263.9 C495.3,263.9 491.6,260.3 491.6,255.8 C491.6,251.3 495.2,247.7 499.7,247.7 L499.7,247.7 Z" id="Shape" fill="#D1E3ED"></path>
                        <path d="M503.6,263.8 L444.2,263.8 C441.1,263.8 438.6,266.3 438.6,269.4 C438.6,272.5 441.1,275 444.2,275 L444.2,275 L503.6,275 L503.6,275 C506.7,275 509.2,272.5 509.2,269.4 C509.2,266.3 506.7,263.8 503.6,263.8 L503.6,263.8 Z" id="Shape" fill="#D1E3ED"></path>
                        <path d="M530.6,236.3 L452.4,236.3 C449.3,236.3 446.7,238.8 446.7,242 C446.7,245.1 449.2,247.7 452.4,247.7 L452.4,247.7 L530.6,247.7 L530.6,247.7 C533.7,247.7 536.3,245.2 536.3,242 C536.2,238.9 533.7,236.3 530.6,236.3 L530.6,236.3 Z" id="Shape" fill="#D1E3ED"></path>
                        <path d="M453.4,75.2 L358.6,75.2 C355.5,75.2 352.9,77.7 352.9,80.9 C352.9,84 355.4,86.6 358.6,86.6 L358.6,86.6 L453.4,86.6 L453.4,86.6 C456.5,86.6 459.1,84.1 459.1,80.9 C459,77.8 456.5,75.2 453.4,75.2 L453.4,75.2 Z" id="Shape" fill="#6FC2D8"></path>
                        <path d="M261.9,136.9 L206.1,136.9 C203,136.9 200.4,139.4 200.4,142.6 C200.4,145.7 202.9,148.3 206.1,148.3 L206.1,148.3 L261.9,148.3 L261.9,148.3 C265,148.3 267.6,145.8 267.6,142.6 C267.5,139.5 265,136.9 261.9,136.9 L261.9,136.9 Z" id="Shape" fill="#6FC2D8"></path>
                        <path d="M228.7,91.9 C222.2,91.9 216.9,86.6 216.9,80.1 C216.9,73.6 222.2,68.3 228.7,68.3 L240.5,68.3 L240.5,54.9 L170,54.9 C166.3,54.9 163.3,57.9 163.3,61.6 C163.3,65.3 166.3,68.3 170,68.3 L170,68.3 L183.5,68.3 C190,68.3 195.3,73.6 195.3,80.1 C195.3,86.6 190,91.9 183.5,91.9 L109.5,91.9 C101.2,91.9 94.5,98.6 94.5,106.9 C94.5,115.2 101.2,121.9 109.5,121.9 L228.7,121.9 C237,121.9 243.7,115.2 243.7,106.9 C243.7,98.6 237,91.9 228.7,91.9 L228.7,91.9 Z" id="Shape" fill="#6FC2D8"></path>
                        <circle id="Oval" fill="#6FC2D8" cx="185.3" cy="175.6" r="19.3"></circle>
                        <circle id="Oval" fill="#6FC2D8" cx="256.1" cy="61.6" r="18.4"></circle>
                        <circle id="Oval" fill="#6FC2D8" cx="260.8" cy="245.3" r="29.3"></circle>
                        <circle id="Oval" fill="#6FC2D8" cx="437.7" cy="140.3" r="38.9"></circle>
                        <circle id="Oval" fill="#6FC2D8" cx="263.9" cy="142.6" r="22.8"></circle>
                        <circle id="Oval" fill="#6FC2D8" cx="338.6" cy="293" r="22.8"></circle>
                        <circle id="Oval" fill="#6FC2D8" cx="128.6" cy="144.5" r="16.5"></circle>
                        <circle id="Oval" fill="#6FC2D8" cx="180.8" cy="245.3" r="9.7"></circle>
                        <circle id="Oval" fill="#6FC2D8" cx="298.1" cy="185" r="14.4"></circle>
                        <path d="M198.2,203.7 L159.2,203.7 C154.3,203.7 150.4,199.8 150.4,194.9 C150.4,190 154.3,186.1 159.2,186.1 L172,186.1 C177.8,186.1 182.4,181.4 182.4,175.7 C182.4,170 177.7,165.3 172,165.3 L89.2,165.3 C83.4,165.3 78.8,170 78.8,175.7 C78.8,181.4 83.5,186.1 89.2,186.1 L136.1,186.1 C141,186.1 144.9,190 144.9,194.9 C144.9,199.8 141,203.7 136.1,203.7 L131,203.7 C123.3,203.7 117.1,209.9 117.1,217.6 C117.1,225.3 123.3,231.5 131,231.5 L198.1,231.5 C205.8,231.5 212,225.3 212,217.6 C212.1,209.9 205.9,203.7 198.2,203.7 L198.2,203.7 Z" id="Shape" fill="#6FC2D8"></path>
                        <path d="M370.2,234.8 L287.4,234.8 C281.6,234.8 277,239.5 277,245.2 C277,251 281.7,255.6 287.4,255.6 L326.9,255.6 C331.8,255.6 335.7,259.5 335.7,264.4 C335.7,269.3 331.8,273.2 326.9,273.2 L350,273.2 C345.1,273.2 341.2,269.3 341.2,264.4 C341.2,259.5 345.1,255.6 350,255.6 L370.3,255.6 C376.1,255.6 380.7,250.9 380.7,245.2 C380.6,239.5 376,234.8 370.2,234.8 L370.2,234.8 Z" id="Shape" fill="#6FC2D8"></path>
                        <path d="M77.9,273.6 C74.6,273.6 71.9,270.9 71.9,267.6 C71.9,256.9 63.2,248.3 52.6,248.3 C41.9,248.3 33.3,257 33.3,267.6 C33.3,270.9 30.6,273.6 27.3,273.6 C24,273.6 21.3,270.9 21.3,267.6 C21.3,250.3 35.4,236.3 52.6,236.3 C69.8,236.3 83.9,250.4 83.9,267.6 C83.9,270.9 81.2,273.6 77.9,273.6 L77.9,273.6 Z" id="Shape" fill="#AACAE3"></path>
                        <path d="M50.8,223.7 C47,223.7 43.2,223 39.6,221.5 C24.5,215.3 17.4,198 23.6,182.9 C24.9,179.8 28.4,178.4 31.4,179.6 C34.5,180.9 35.9,184.4 34.7,187.4 C31,196.3 35.3,206.6 44.2,210.3 C53.1,214 63.4,209.7 67.1,200.8 C68.4,197.7 71.9,196.3 74.9,197.5 C78,198.8 79.4,202.3 78.2,205.3 C73.4,216.8 62.4,223.7 50.8,223.7 L50.8,223.7 Z" id="Shape" fill="#AACAE3"></path>
                        <path d="M373.5,67.6 L373.3,67.6 C370,67.5 367.4,64.7 367.5,61.4 C367.9,51.7 360.3,43.6 350.6,43.2 C340.9,42.8 332.8,50.4 332.4,60.1 C332.3,63.4 329.5,66 326.2,65.9 C322.9,65.8 320.3,63 320.4,59.7 C321,43.4 334.7,30.7 351,31.3 C367.3,31.9 380,45.6 379.4,61.9 C379.4,65 376.7,67.6 373.5,67.6 L373.5,67.6 Z" id="Shape" fill="#AACAE3"></path>
                        <path d="M429.5,272.6 L429.5,272.6 C421.6,272.6 414.2,269.5 408.6,263.9 C403,258.3 400,250.9 400,243 C400,239.7 402.7,237 406,237 L406,237 C409.3,237 412,239.7 412,243 C412,247.7 413.8,252.1 417.1,255.4 C420.4,258.7 424.8,260.5 429.5,260.5 L429.5,260.5 C434.2,260.5 438.6,258.7 441.9,255.4 C445.2,252.1 447,247.7 447,243 C447,239.7 449.7,237 453,237 L453,237 C456.3,237 459,239.7 459,243 C459,250.9 455.9,258.3 450.3,263.9 C444.8,269.5 437.4,272.6 429.5,272.6 L429.5,272.6 Z" id="Shape" fill="#AACAE3"></path>
                        <path d="M327.3,29.4 C327.8,16.4 338.7,6.3 351.7,6.7 C364.7,7.2 374.8,18.1 374.4,31.1" id="Shape" fill="#D1E3ED"></path>
                        <path d="M374.4,37.1 L374.2,37.1 C370.9,37 368.3,34.2 368.4,30.9 C368.6,26.2 366.9,21.8 363.7,18.3 C360.5,14.9 356.2,12.9 351.5,12.7 C346.8,12.5 342.3,14.2 338.9,17.4 C335.5,20.6 333.5,24.9 333.3,29.6 C333.2,32.9 330.4,35.5 327.1,35.4 C323.8,35.3 321.2,32.5 321.3,29.2 C321.6,21.3 324.9,14 330.7,8.6 C336.5,3.2 344,0.4 351.9,0.7 C359.8,1 367.1,4.3 372.5,10.1 C377.9,15.9 380.7,23.4 380.4,31.3 C380.2,34.6 377.6,37.1 374.4,37.1 L374.4,37.1 Z" id="Shape" fill="#D1E3ED"></path>
                        <path d="M55,119.3 C43.4,109.5 42,92.1 51.8,80.5 C61.6,68.9 79,67.5 90.6,77.3" id="Shape" fill="#AACAE3"></path>
                        <path d="M55,126.3 C53.4,126.3 51.8,125.8 50.5,124.6 C36,112.3 34.2,90.4 46.5,75.9 C52.5,68.9 60.8,64.6 70,63.8 C79.2,63.1 88.2,65.9 95.2,71.9 C98.2,74.4 98.5,78.8 96,81.8 C93.5,84.8 89.1,85.1 86.1,82.6 C77.5,75.3 64.5,76.3 57.2,85 C49.9,93.6 50.9,106.6 59.6,113.9 C62.6,116.4 62.9,120.8 60.4,123.8 C59,125.5 57,126.3 55,126.3 L55,126.3 Z" id="Shape" fill="#AACAE3"></path>
                        <path d="M87.2,124.4 C85.6,124.4 84.1,123.8 82.9,122.6 C71.5,110.9 71.8,92.2 83.5,80.8 C95.2,69.4 113.9,69.7 125.3,81.4 C127.6,83.8 127.6,87.6 125.2,89.9 C122.8,92.2 119,92.2 116.7,89.8 C110,82.9 98.8,82.7 91.9,89.5 C85,96.2 84.8,107.4 91.6,114.3 C93.9,116.7 93.9,120.5 91.5,122.8 C90.2,123.8 88.7,124.4 87.2,124.4 L87.2,124.4 Z" id="Shape" fill="#D1E3ED"></path>
                        <path d="M22,143.2 C15.6,137.8 14.8,128.1 20.2,121.7 C25.6,115.3 35.3,114.5 41.7,119.9" id="Shape" fill="#AACAE3"></path>
                        <path d="M22,147.1 C21.1,147.1 20.2,146.8 19.5,146.2 C11.5,139.4 10.5,127.3 17.3,119.2 C20.6,115.3 25.2,112.9 30.3,112.5 C35.4,112.1 40.3,113.7 44.2,117 C45.8,118.4 46,120.8 44.6,122.5 C43.2,124.1 40.8,124.3 39.1,122.9 C36.8,120.9 33.9,120 30.8,120.2 C27.8,120.4 25,121.9 23.1,124.2 C19,129 19.6,136.2 24.4,140.2 C26,141.6 26.2,144 24.8,145.7 C24.2,146.6 23.1,147.1 22,147.1 L22,147.1 Z" id="Shape" fill="#AACAE3"></path>
                        <path d="M321.6,132.9 C313.9,132.9 306.7,130 301.1,124.6 C295.4,119.1 292.2,111.8 292.1,103.9 C292,96 294.9,88.5 300.4,82.9 C302.7,80.5 306.5,80.4 308.9,82.7 C311.3,85 311.4,88.8 309.1,91.2 C305.8,94.6 304.1,99 304.2,103.7 C304.3,108.4 306.2,112.8 309.6,116 C313,119.2 317.4,121 322.1,120.9 C326.8,120.8 331.2,118.9 334.4,115.5 C336.7,113.1 340.5,113 342.9,115.3 C345.3,117.6 345.4,121.4 343.1,123.8 C337.6,129.5 330.3,132.7 322.4,132.8 C321.9,132.9 321.8,132.9 321.6,132.9 L321.6,132.9 Z" id="Shape" fill="#AACAE3"></path>
                        <path d="M472.7,186 L472.2,186 C469.6,186 467.6,183.8 467.6,181.2 C467.6,178.6 469.7,176.6 472.4,176.6 C479.9,176.7 486.2,170.7 486.3,163.2 C486.3,160.6 488.5,158.6 491.1,158.6 C493.7,158.6 495.7,160.8 495.7,163.4 C495.4,176 485.1,186 472.7,186 L472.7,186 Z" id="Shape" fill="#AACAE3"></path>
                        <path d="M228.2,208.6 C226,208.6 223.9,207.4 222.9,205.3 C217.3,194.5 221.6,181.1 232.5,175.5 C237.8,172.8 243.8,172.3 249.4,174.1 C255,175.9 259.6,179.8 262.3,185 C263.8,187.9 262.7,191.6 259.7,193.1 C256.8,194.6 253.1,193.5 251.6,190.5 C250.4,188.1 248.3,186.3 245.7,185.5 C243.1,184.7 240.4,184.9 238,186.1 C233,188.7 231.1,194.8 233.6,199.7 C235.1,202.6 234,206.3 231,207.8 C230,208.4 229.1,208.6 228.2,208.6 L228.2,208.6 Z" id="Shape" fill="#AACAE3"></path>
                        <path d="M325.1,66.8 L324.9,66.8 C321.6,66.7 319,63.9 319.1,60.6 C319.3,55.7 315.5,51.6 310.6,51.5 C305.8,51.3 301.6,55.1 301.5,60 C301.4,63.3 298.6,65.9 295.3,65.8 C292,65.7 289.4,62.9 289.5,59.6 C289.9,48.1 299.6,39.1 311.1,39.6 C322.6,40 331.6,49.7 331.1,61.2 C330.9,64.2 328.3,66.8 325.1,66.8 L325.1,66.8 Z" id="Shape" fill="#AACAE3"></path>
                        <path d="M453.1,249.1 C449.8,249.1 447.1,246.4 447.1,243.1 L447.1,226.2 C447.1,222.9 449.8,220.2 453.1,220.2 C456.4,220.2 459.1,222.9 459.1,226.2 L459.1,243 C459.1,246.4 456.4,249.1 453.1,249.1 L453.1,249.1 Z" id="Shape" fill="#AACAE3"></path>
                        <path d="M406,249 C402.7,249 400,246.3 400,243 L400,226.2 C400,222.9 402.7,220.2 406,220.2 C409.3,220.2 412,222.9 412,226.2 L412,243 C412,246.3 409.3,249 406,249 L406,249 Z" id="Shape" fill="#AACAE3"></path>
                        <path d="M406,232.2 L384.4,232.2 C381.1,232.2 378.4,229.5 378.4,226.2 C378.4,222.9 381.1,220.2 384.4,220.2 L406,220.2 C409.3,220.2 412,222.9 412,226.2 C412,229.5 409.3,232.2 406,232.2 L406,232.2 Z" id="Shape" fill="#AACAE3"></path>
                        <path d="M305.3,184.3 C305.2,185.9 304.8,187.1 304.1,188.1 C303.4,189 302.4,189.5 301.2,189.5 C300.7,189.5 300.2,189.4 299.8,189.2 C299.4,189 299.1,188.6 298.9,188.2 C298.3,189.1 297.5,189.5 296.5,189.5 C295.6,189.5 294.9,189.1 294.4,188.4 C293.9,187.7 293.7,186.6 293.8,185.4 C293.9,184.4 294.2,183.5 294.6,182.7 C295,181.9 295.5,181.3 296.1,180.9 C296.7,180.5 297.4,180.3 298.1,180.3 C299,180.3 299.7,180.5 300.4,180.9 L301,181.3 L300.5,186.7 C300.4,187.2 300.5,187.6 300.7,187.8 C300.9,188.1 301.1,188.2 301.5,188.2 C302.1,188.2 302.5,187.9 302.9,187.2 C303.3,186.5 303.5,185.7 303.5,184.6 C303.6,182.4 303.2,180.8 302.2,179.6 C301.2,178.4 299.8,177.9 297.9,177.9 C296.7,177.9 295.6,178.2 294.7,178.8 C293.8,179.4 293,180.3 292.5,181.4 C292,182.5 291.7,183.8 291.6,185.2 C291.5,187.4 291.9,189.1 292.9,190.3 C293.9,191.5 295.3,192.1 297.3,192.1 C297.8,192.1 298.4,192 298.9,191.9 C299.5,191.8 299.9,191.6 300.4,191.4 L300.8,192.8 C300.4,193 299.9,193.2 299.3,193.4 C298.7,193.6 298,193.6 297.4,193.6 C295.8,193.6 294.4,193.3 293.2,192.6 C292,191.9 291.2,191 290.6,189.7 C290,188.4 289.8,186.9 289.9,185.1 C290,183.4 290.4,181.9 291.1,180.5 C291.8,179.1 292.8,178.1 294,177.4 C295.2,176.7 296.6,176.3 298.1,176.3 C299.7,176.3 301,176.6 302.1,177.3 C303.2,178 304.1,178.9 304.6,180.2 C305.2,181.2 305.4,182.7 305.3,184.3 L305.3,184.3 Z M296,185.3 C295.9,186.1 296,186.7 296.2,187.2 C296.4,187.6 296.8,187.8 297.2,187.8 C297.5,187.8 297.8,187.7 298.1,187.4 C298.4,187.1 298.6,186.8 298.8,186.2 L299.2,181.8 C299,181.7 298.7,181.7 298.5,181.7 C297.8,181.7 297.2,182 296.8,182.6 C296.4,183.2 296.1,184.1 296,185.3 L296,185.3 Z" id="Shape" fill="#258BAF"></path>
                        <path d="M260.8,263.4 C257.4,263.4 253.8,257 253.8,245.3 C253.8,233.5 257.4,227.2 260.8,227.2 C264.2,227.2 267.8,233.6 267.8,245.3 C267.7,257 264.1,263.4 260.8,263.4 L260.8,263.4 Z M260.8,228.6 C258.2,228.6 255.3,235.4 255.3,245.2 C255.3,255 258.2,261.8 260.8,261.8 C263.4,261.8 266.3,255 266.3,245.2 C266.2,235.5 263.4,228.6 260.8,228.6 L260.8,228.6 Z" id="Shape" fill="#258BAF"></path>
                        <path d="M271.9,256.5 C268.1,256.5 262.5,254.5 257.1,251.2 C253.1,248.7 249.6,245.8 247.4,243 C245,240 244.3,237.4 245.3,235.7 C245.8,234.9 247,233.9 249.6,233.9 C253.4,233.9 259,235.9 264.4,239.2 C274.4,245.4 278,251.7 276.2,254.6 C275.7,255.6 274.5,256.5 271.9,256.5 L271.9,256.5 Z M249.6,235.5 C248.5,235.5 247.1,235.7 246.6,236.6 C245.9,237.7 246.7,239.8 248.6,242.2 C250.7,244.9 254,247.6 257.9,250 C263,253.1 268.4,255.1 271.9,255.1 C273,255.1 274.4,254.9 274.9,254 C276.3,251.8 271.9,245.8 263.6,240.6 C258.5,237.4 253.1,235.5 249.6,235.5 L249.6,235.5 Z" id="Shape" fill="#258BAF"></path>
                        <path d="M249.6,256.3 C246.8,256.3 245.6,255.3 245.1,254.4 C244.1,252.7 244.9,250.1 247.3,247.2 C249.6,244.5 253.1,241.6 257.2,239.2 C262.6,236.1 268.1,234.2 271.9,234.2 C274.7,234.2 275.9,235.2 276.4,236.1 C277.4,237.8 276.6,240.4 274.2,243.3 C271.9,246 268.4,248.9 264.3,251.3 C258.9,254.4 253.4,256.3 249.6,256.3 L249.6,256.3 Z M271.9,235.7 C268.4,235.7 263,237.5 258,240.5 C254.1,242.8 250.7,245.5 248.5,248.1 C246.5,250.4 245.8,252.5 246.4,253.6 C247,254.5 248.4,254.7 249.6,254.7 C253.1,254.7 258.5,252.9 263.5,249.9 C267.4,247.6 270.8,244.9 273,242.3 C275,240 275.7,237.9 275.1,236.8 C274.5,235.9 273.1,235.7 271.9,235.7 L271.9,235.7 Z" id="Shape" fill="#258BAF"></path>
                        <circle id="Oval" fill="#FFFFFF" cx="250.7" cy="255.5" r="1.9"></circle>
                        <circle id="Oval" fill="#FFFFFF" cx="257.1" cy="231.5" r="1.9"></circle>
                        <circle id="Oval" fill="#FFFFFF" cx="274.2" cy="249.1" r="1.9"></circle>
                        <circle id="Oval" fill="#FFFFFF" cx="260.8" cy="245.3" r="2.5"></circle>
                        <rect id="Rectangle-path" fill="#258BAF" x="126.5" y="140.8" width="4" height="11"></rect>
                        <path d="M130.5,140.8 L126.5,140.8 C126.5,137.3 129.3,134.5 132.8,134.5 L132.8,138.5 C131.6,138.5 130.5,139.5 130.5,140.8 L130.5,140.8 Z" id="Shape" fill="#258BAF"></path>
                        <rect id="Rectangle-path" fill="#258BAF" x="124.4" y="140.8" width="8.5" height="4"></rect>
                        <path d="M454.2,86.4 L421,86.4 C424.7,86.4 427.6,90.6 427.6,95.8 C427.6,101 424.6,105.2 421,105.2 L454.2,105.2 C450.6,105.2 447.6,101 447.6,95.8 C447.6,90.6 450.6,86.4 454.2,86.4 L454.2,86.4 Z" id="Shape" fill="#6FC2D8"></path>
                        <path d="M449.6,177.6 L425.1,177.6 C427.8,177.6 430,180.7 430,184.5 C430,188.3 427.8,191.4 425.1,191.4 L449.6,191.4 C446.9,191.4 444.7,188.3 444.7,184.5 C444.7,180.7 446.9,177.6 449.6,177.6 L449.6,177.6 Z" id="Shape" fill="#6FC2D8"></path>
                        <path d="M136.1,121.9 L121.1,121.9 C123.3,121.9 125,123.7 125,125.8 C125,128 123.2,129.7 121.1,129.7 L136.1,129.7 C133.9,129.7 132.2,127.9 132.2,125.8 C132.2,123.7 134,121.9 136.1,121.9 L136.1,121.9 Z" id="Shape" fill="#6FC2D8"></path>
                        <path d="M186.4,231.5 L175.2,231.5 C176.8,231.5 178.1,232.8 178.1,234.4 C178.1,236 176.8,237.3 175.2,237.3 L186.4,237.3 C184.8,237.3 183.5,236 183.5,234.4 C183.5,232.8 184.8,231.5 186.4,231.5 L186.4,231.5 Z" id="Shape" fill="#6FC2D8"></path>
                        <path d="M135.4,159.6 L121.8,159.6 C123.3,159.6 124.6,160.9 124.6,162.4 C124.6,163.9 123.3,165.2 121.8,165.2 L135.4,165.2 C133.9,165.2 132.6,163.9 132.6,162.4 C132.6,160.8 133.9,159.6 135.4,159.6 L135.4,159.6 Z" id="Shape" fill="#6FC2D8"></path>
                        <path d="M251.8,58.8 L250.6,60.3 C250,59.6 249.2,59.2 248.5,59.2 C247.2,59.2 246.2,60.3 246.2,61.6 C246.2,63 247.2,64.1 248.5,64.1 C249.2,64.1 250,63.7 250.6,63.1 L251.8,64.4 C250.9,65.3 249.6,65.9 248.3,65.9 C245.8,65.9 243.9,64 243.9,61.6 C243.9,59.2 245.8,57.4 248.4,57.4 C249.7,57.4 251,57.9 251.8,58.8 L251.8,58.8 Z" id="Shape" fill="#258BAF"></path>
                        <polygon id="Shape" fill="#258BAF" points="256.7 59.2 256.7 65.9 254.6 65.9 254.6 59.2 252.1 59.2 252.1 57.5 259.3 57.5 259.3 59.2"></polygon>
                        <path d="M264,63.5 L264,63.5 L262.3,63.5 L262.3,65.9 L260.2,65.9 L260.2,57.5 L264,57.5 C266.2,57.5 267.5,58.6 267.5,60.4 C267.5,61.7 267,62.6 266,63.1 L267.8,65.9 L265.4,65.9 L264,63.5 L264,63.5 Z M263.9,61.8 C264.8,61.8 265.4,61.3 265.4,60.4 C265.4,59.5 264.9,59.1 263.9,59.1 L262.3,59.1 L262.3,61.8 L263.9,61.8 L263.9,61.8 Z" id="Shape" fill="#258BAF"></path>
                        <path d="M256.4,138.5 C259,138.5 260.9,140.2 260.9,142.7 C260.9,145.2 259.1,146.9 256.4,146.9 L252.9,146.9 L252.9,138.5 L256.4,138.5 L256.4,138.5 Z M255,145.2 L256.5,145.2 C257.8,145.2 258.7,144.2 258.7,142.7 C258.7,141.2 257.7,140.2 256.4,140.2 L255,140.2 L255,145.2 L255,145.2 Z" id="Shape" fill="#258BAF"></path>
                        <path d="M268.6,139.3 L267.8,141 C266.9,140.5 265.8,140.1 265.1,140.1 C264.5,140.1 264.2,140.3 264.2,140.7 C264.2,142.2 268.6,141.3 268.6,144.4 C268.6,146.1 267.1,147 265.2,147 C263.8,147 262.4,146.5 261.4,145.7 L262.2,144.1 C263.1,144.9 264.4,145.4 265.2,145.4 C265.9,145.4 266.3,145.1 266.3,144.7 C266.3,143.2 261.9,144.1 261.9,141.1 C261.9,139.6 263.2,138.6 265.2,138.6 C266.5,138.4 267.7,138.8 268.6,139.3 L268.6,139.3 Z" id="Shape" fill="#258BAF"></path>
                        <path d="M273.4,138.5 C275.5,138.5 276.8,139.6 276.8,141.4 C276.8,143.4 275.6,144.5 273.4,144.5 L271.9,144.5 L271.9,146.9 L269.8,146.9 L269.8,138.5 L273.4,138.5 L273.4,138.5 Z M271.9,142.8 L273.3,142.8 C274.2,142.8 274.8,142.3 274.8,141.4 C274.8,140.5 274.3,140.1 273.3,140.1 L271.9,140.1 L271.9,142.8 L271.9,142.8 Z" id="Shape" fill="#258BAF"></path>
                        <path d="M431.8,135.8 L430,137.9 C429.2,136.9 428.1,136.4 427,136.4 C425.1,136.4 423.7,137.9 423.7,139.9 C423.7,141.9 425.1,143.4 427,143.4 C428,143.4 429.2,142.9 430,142 L431.8,143.9 C430.5,145.2 428.6,146.1 426.9,146.1 C423.3,146.1 420.6,143.5 420.6,140 C420.6,136.6 423.3,134 427,134 C428.8,133.7 430.6,134.5 431.8,135.8 L431.8,135.8 Z" id="Shape" fill="#258BAF"></path>
                        <path d="M438.4,133.9 C441.4,133.9 443.2,135.4 443.2,138 C443.2,140.8 441.4,142.4 438.4,142.4 L436.2,142.4 L436.2,145.7 L433.2,145.7 L433.2,133.8 L438.4,133.8 L438.4,133.9 Z M436.2,140 L438.2,140 C439.5,140 440.3,139.3 440.3,138.1 C440.3,136.9 439.5,136.2 438.2,136.2 L436.2,136.2 L436.2,140 L436.2,140 Z" id="Shape" fill="#258BAF"></path>
                        <polygon id="Shape" fill="#258BAF" points="455.2 145.8 455.2 138.1 452.3 144.6 450.3 144.6 447.4 138.1 447.4 145.8 444.7 145.8 444.7 133.9 448 133.9 451.2 141 454.4 133.9 457.7 133.9 457.7 145.8 455.2 145.8"></polygon>
                        <path d="M185.8,173 L184.5,174.6 C183.9,173.9 183,173.4 182.2,173.4 C180.8,173.4 179.7,174.5 179.7,176 C179.7,177.5 180.8,178.7 182.2,178.7 C183,178.7 183.9,178.3 184.5,177.6 L185.9,179 C184.9,180 183.5,180.7 182.1,180.7 C179.4,180.7 177.3,178.7 177.3,176 C177.3,173.4 179.4,171.4 182.2,171.4 C183.5,171.4 184.9,172 185.8,173 L185.8,173 Z" id="Shape" fill="#FFFFFF"></path>
                        <polygon id="Shape" fill="#FFFFFF" points="189.5 180.6 186 171.5 188.5 171.5 190.8 178.2 193.1 171.5 195.5 171.5 191.9 180.6"></polygon>
                        <path d="M334.9,289.3 L334,291.1 C333,290.5 331.8,290.2 331.1,290.2 C330.5,290.2 330.1,290.4 330.1,290.9 C330.1,292.5 334.9,291.6 334.9,294.9 C334.9,296.7 333.3,297.7 331.3,297.7 C329.8,297.7 328.2,297.1 327.1,296.2 L328,294.4 C328.9,295.2 330.3,295.8 331.3,295.8 C332,295.8 332.5,295.5 332.5,295 C332.5,293.4 327.7,294.3 327.7,291.1 C327.7,289.4 329.1,288.4 331.3,288.4 C332.6,288.3 333.9,288.7 334.9,289.3 L334.9,289.3 Z" id="Shape" fill="#FFFFFF"></path>
                        <polygon id="Shape" fill="#FFFFFF" points="338.5 290.2 338.5 292 342.8 292 342.8 293.8 338.5 293.8 338.5 295.6 343.5 295.6 343.5 297.4 336.2 297.4 336.2 288.3 343.3 288.3 343.3 290.1 338.5 290.1"></polygon>
                        <path d="M354.2,292.9 C354.2,295.6 352.1,297.6 349.3,297.6 C346.5,297.6 344.4,295.6 344.4,292.9 C344.4,290.2 346.5,288.3 349.3,288.3 C352.1,288.3 354.2,290.3 354.2,292.9 L354.2,292.9 Z M346.7,292.9 C346.7,294.4 347.9,295.6 349.3,295.6 C350.7,295.6 351.8,294.4 351.8,292.9 C351.8,291.4 350.7,290.2 349.3,290.2 C347.9,290.3 346.7,291.4 346.7,292.9 L346.7,292.9 Z" id="Shape" fill="#FFFFFF"></path>
                        <path d="M131.2,108.3 L131.2,108.3 L129.5,108.3 L129.5,110.7 L127.4,110.7 L127.4,102.3 L131.2,102.3 C133.4,102.3 134.7,103.4 134.7,105.2 C134.7,106.5 134.2,107.4 133.2,107.9 L135,110.7 L132.6,110.7 L131.2,108.3 L131.2,108.3 Z M131.1,106.7 C132,106.7 132.6,106.2 132.6,105.3 C132.6,104.4 132.1,104 131.1,104 L129.5,104 L129.5,106.7 L131.1,106.7 L131.1,106.7 Z" id="Shape" fill="#258BAF"></path>
                        <polygon id="Shape" fill="#258BAF" points="138.2 104 138.2 105.7 142.2 105.7 142.2 107.4 138.2 107.4 138.2 109.1 142.8 109.1 142.8 110.8 136.1 110.8 136.1 102.4 142.7 102.4 142.7 104.1 138.2 104.1"></polygon>
                        <polygon id="Shape" fill="#258BAF" points="148 104 148 110.7 145.9 110.7 145.9 104 143.4 104 143.4 102.3 150.6 102.3 150.6 104"></polygon>
                        <path d="M152.5,109.2 L151.9,110.7 L149.7,110.7 L153.3,102.3 L155.5,102.3 L159,110.7 L156.7,110.7 L156.1,109.2 L152.5,109.2 L152.5,109.2 Z M154.3,104.4 L153.1,107.5 L155.5,107.5 L154.3,104.4 L154.3,104.4 Z" id="Shape" fill="#258BAF"></path>
                        <path d="M163.6,108.3 L163.6,108.3 L161.9,108.3 L161.9,110.7 L159.8,110.7 L159.8,102.3 L163.6,102.3 C165.8,102.3 167.1,103.4 167.1,105.2 C167.1,106.5 166.6,107.4 165.6,107.9 L167.4,110.7 L165,110.7 L163.6,108.3 L163.6,108.3 Z M163.6,106.7 C164.5,106.7 165.1,106.2 165.1,105.3 C165.1,104.4 164.6,104 163.6,104 L162,104 L162,106.7 L163.6,106.7 L163.6,106.7 Z" id="Shape" fill="#258BAF"></path>
                        <path d="M175.9,106.4 L175.9,109.7 C175,110.3 173.6,110.8 172.4,110.8 C169.8,110.8 167.9,109 167.9,106.5 C167.9,104.1 169.9,102.2 172.5,102.2 C173.7,102.2 175.1,102.7 175.9,103.4 L174.7,104.9 C174.1,104.3 173.2,104 172.5,104 C171.1,104 170.1,105.1 170.1,106.5 C170.1,107.9 171.2,109 172.6,109 C173,109 173.6,108.8 174.1,108.6 L174.1,106.4 L175.9,106.4 L175.9,106.4 Z" id="Shape" fill="#258BAF"></path>
                        <polygon id="Shape" fill="#258BAF" points="179.6 104 179.6 105.7 183.6 105.7 183.6 107.4 179.6 107.4 179.6 109.1 184.2 109.1 184.2 110.8 177.5 110.8 177.5 102.4 184.1 102.4 184.1 104.1 179.6 104.1"></polygon>
                        <polygon id="Shape" fill="#258BAF" points="189.4 104 189.4 110.7 187.3 110.7 187.3 104 184.8 104 184.8 102.3 192 102.3 192 104"></polygon>
                        <polygon id="Shape" fill="#258BAF" points="192.8 110.7 192.8 102.3 194.9 102.3 194.9 110.7"></polygon>
                        <polygon id="Shape" fill="#258BAF" points="202.5 110.7 198.6 105.5 198.6 110.7 196.6 110.7 196.6 102.3 198.5 102.3 202.4 107.5 202.4 102.3 204.4 102.3 204.4 110.7"></polygon>
                        <path d="M213.5,106.4 L213.5,109.7 C212.6,110.3 211.2,110.8 210,110.8 C207.4,110.8 205.5,109 205.5,106.5 C205.5,104.1 207.5,102.2 210.1,102.2 C211.3,102.2 212.7,102.7 213.5,103.4 L212.3,104.9 C211.7,104.3 210.8,104 210.1,104 C208.7,104 207.7,105.1 207.7,106.5 C207.7,107.9 208.8,109 210.2,109 C210.6,109 211.2,108.8 211.7,108.6 L211.7,106.4 L213.5,106.4 L213.5,106.4 Z" id="Shape" fill="#258BAF"></path>
                    </g>
                </g>
            </g>
        </g>
    </g>
</svg>