<?xml version="1.0" encoding="UTF-8" standalone="no"?>
<svg width="14px" height="14px" viewBox="0 0 14 14" version="1.1" xmlns="http://www.w3.org/2000/svg" xmlns:xlink="http://www.w3.org/1999/xlink">
    <!-- Generator: Sketch 3.8.2 (29753) - http://www.bohemiancoding.com/sketch -->
    <title>Shape</title>
    <desc>Created with Sketch.</desc>
    <defs></defs>
    <g id="Page-1" stroke="none" stroke-width="1" fill="none" fill-rule="evenodd">
        <g id="Identi_Wireframe" transform="translate(-1381.000000, -51.000000)" fill="#FFFFFF">
            <g id="Header" transform="translate(0.000000, -3.000000)">
                <g id="Group-6" transform="translate(1171.000000, 45.000000)">
                    <path d="M221.294376,9 L212.705624,9 C211.213732,9 210,10.1896569 210,11.6522954 L210,14.4540939 L210,20.072918 C210,21.5355564 211.213732,22.7252133 212.705624,22.7252133 L221.294659,22.7252133 C222.78655,22.7252133 224,21.5355564 224,20.072918 L224,14.453817 L224,11.6520185 C223.999718,10.1893801 222.786268,9 221.294376,9 L221.294376,9 Z M222.070397,10.5816872 L222.379902,10.5805798 L222.379902,10.8826314 L222.379902,12.9070138 L220.014846,12.914489 L220.006656,10.5883318 L222.070397,10.5816872 L222.070397,10.5816872 Z M215.001775,14.453817 C215.450218,13.8455609 216.177667,13.4466092 217,13.4466092 C217.822333,13.4466092 218.549782,13.8455609 218.99766,14.453817 C219.289374,14.8508307 219.464176,15.3364389 219.464176,15.8624682 C219.464176,17.1944299 218.357754,18.2780504 216.999718,18.2780504 C215.640834,18.2780504 214.535541,17.1944299 214.535541,15.8624682 C214.535824,15.3364389 214.710061,14.8508307 215.001775,14.453817 L215.001775,14.453817 Z M222.635751,20.0726411 C222.635751,20.7982847 222.033968,21.3877145 221.294376,21.3877145 L212.705624,21.3877145 C211.96575,21.3877145 211.363966,20.7982847 211.363966,20.0726411 L211.363966,14.453817 L213.453687,14.453817 C213.273237,14.8890371 213.171857,15.3644015 213.171857,15.8624682 C213.171857,17.9314248 214.888817,19.6158261 217,19.6158261 C219.1109,19.6158261 220.82786,17.9314248 220.82786,15.8624682 C220.82786,15.3644015 220.725916,14.8890371 220.545466,14.453817 L222.635751,14.453817 L222.635751,20.0726411 L222.635751,20.0726411 Z" id="Shape"></path>
                </g>
            </g>
        </g>
    </g>
</svg>