<?xml version="1.0" encoding="UTF-8" standalone="no"?>
<svg width="459px" height="355px" viewBox="0 0 459 355" version="1.1" xmlns="http://www.w3.org/2000/svg" xmlns:xlink="http://www.w3.org/1999/xlink">
    <!-- Generator: Sketch 3.8.2 (29753) - http://www.bohemiancoding.com/sketch -->
    <title>iconidenti2</title>
    <desc>Created with Sketch.</desc>
    <defs></defs>
    <g id="Page-1" stroke="none" stroke-width="1" fill="none" fill-rule="evenodd">
        <g id="Identi_Wireframe" transform="translate(-135.000000, -2635.000000)">
            <g id="Services" transform="translate(0.000000, 1372.000000)">
                <g id="Technology" transform="translate(135.000000, 1263.000000)">
                    <g id="iconidenti2">
                        <g id="Layer_1">
                            <circle id="Oval" fill="#288CB0" cx="362.3" cy="24.3" r="19.8"></circle>
                            <circle id="Oval" fill="#70C2D8" cx="62.3" cy="280.6" r="23.2"></circle>
                            <circle id="Oval" fill="#AACAE3" cx="377.5" cy="265.8" r="30.9"></circle>
                            <circle id="Oval" fill="#AACAE3" cx="431.9" cy="88.5" r="26.9"></circle>
                            <circle id="Oval" fill="#70C2D8" cx="31.3" cy="31.5" r="30.9"></circle>
                            <g id="Group" transform="translate(66.000000, 8.000000)">
                                <circle id="Oval" fill="#AACAE3" cx="121.6" cy="146.1" r="121.1"></circle>
                                <path d="M123.3,287.5 C122.7,287.5 122,287.4 121.4,287.2 C117.5,286.1 115.2,282.2 116.3,278.3 L187.8,16.1 C188.9,12.2 192.8,9.9 196.7,11 C200.6,12.1 202.9,16 201.8,19.9 L130.3,282.1 C129.4,285.3 126.5,287.5 123.3,287.5 L123.3,287.5 Z" id="Shape" fill="#288CB0"></path>
                                <circle id="Oval" fill="#D1E3ED" cx="145.8" cy="146.1" r="121.1"></circle>
                                <path d="M146,296.7 C132.9,296.7 119.8,295 106.8,291.5 C102.9,290.5 100.6,286.5 101.7,282.6 C102.7,278.7 106.7,276.4 110.6,277.5 C145.7,286.9 182.3,282.1 213.8,263.9 C245.3,245.7 267.8,216.4 277.2,181.3 C286.6,146.2 281.8,109.6 263.6,78.1 C245.4,46.6 216.1,24.1 181,14.7 C177.1,13.7 174.8,9.7 175.9,5.8 C176.9,1.9 180.9,-0.4 184.8,0.7 C223.6,11.1 256.1,36 276.2,70.8 C296.3,105.6 301.6,146.2 291.2,185 C280.8,223.8 255.9,256.3 221.1,276.4 C197.9,289.8 172.1,296.7 146,296.7 L146,296.7 Z" id="Shape" fill="#70C2D8"></path>
                                <path d="M145.9,305.1 C131.6,305.1 110.8,317.3 110.8,331.6 L110.8,346.9 L181.1,346.9 L181.1,331.6 C181.1,317.3 160.2,305.1 145.9,305.1 L145.9,305.1 Z" id="Shape" fill="#D1E3ED"></path>
                                <path d="M136,96.3 L41.3,96.3 C37.5,96.3 34.4,99.4 34.4,103.2 C34.4,107 37.5,110.1 41.3,110.1 L61.3,110.1 C66.7,110.1 71.1,114.5 71.1,119.9 C71.1,125.3 66.8,129.6 61.4,129.6 L25.8,129.7 C25.7,130.4 25.5,132.5 25.1,136.2 C24.7,139.9 24.7,141.2 24.7,143.2 L103.3,143.2 C107.1,143.2 110.1,140.2 110.1,136.4 C110.1,132.6 107.1,129.6 103.3,129.6 L98.5,129.6 C93.1,129.6 88.8,125.2 88.8,119.9 C88.8,114.5 93.2,110.1 98.6,110.1 L136,110.1 C139.8,110.1 142.9,107 142.9,103.2 C142.8,99.4 139.8,96.3 136,96.3 L136,96.3 Z" id="Shape" fill="#70C2D8"></path>
                                <path d="M42.8,147.1 L24.7,147.1 C24.7,147.1 24.9,152.7 25.6,159.7 C26.3,166.6 27.3,171.2 27.6,172.3 L99,172.3 C106,172.3 111.6,166.7 111.6,159.7 C111.6,152.7 106,147.1 99,147.1 L63.7,147.1 L42.8,147.1 L42.8,147.1 Z" id="Shape" fill="#70C2D8"></path>
                                <path d="M135.2,305.7 C137.3,305.7 139.6,305.2 141.9,305.7 C128.6,308.4 113.4,319.4 113.4,331.5 L113.4,346.8 L100,346.8 L100,331.5 C100,317.3 120.9,305.7 135.2,305.7 L135.2,305.7 Z" id="Shape" fill="#AACAE3"></path>
                                <rect id="Rectangle-path" fill="#288CB0" x="134.6" y="295.8" width="14.5" height="9.9"></rect>
                                <g transform="translate(64.000000, 70.000000)" id="Shape" fill="#70C2D8">
                                    <path d="M45,168.5 L43,168.5 C40.9,168.5 39.2,166.8 39.2,164.6 C39.2,162.5 40.9,160.7 43.1,160.7 L42.3,160.7 C43.8,160.7 45,159.5 45,158 C45,156.5 43.8,155.3 42.3,155.3 L21.4,155.3 C19.9,155.3 18.7,156.5 18.7,158 C18.7,159.5 19.9,160.7 21.4,160.7 L28.3,160.7 C30.4,160.7 32.2,162.4 32.2,164.6 C32.2,166.7 30.5,168.4 28.4,168.5 L24.4,168.5 C22.9,168.5 21.7,169.7 21.7,171.2 C21.7,172.7 22.9,173.9 24.4,173.9 L45,173.9 C46.5,173.9 47.7,172.7 47.7,171.2 C47.7,169.7 46.4,168.5 45,168.5 L45,168.5 Z"></path>
                                    <path d="M44.5,16.3 L42.2,16.3 C39.7,16.3 37.7,14.2 37.7,11.7 C37.7,9.2 39.7,7.1 42.3,7.1 L41.4,7.1 C43.2,7.1 44.6,5.7 44.6,3.9 C44.6,2.1 43.2,0.7 41.4,0.7 L16.6,0.7 C14.8,0.7 13.4,2.1 13.4,3.9 C13.4,5.7 14.8,7.1 16.6,7.1 L24.8,7.1 C27.3,7.1 29.4,9.1 29.4,11.7 C29.4,14.2 27.4,16.3 24.9,16.3 L20,16.3 C18.2,16.3 16.8,17.7 16.8,19.5 C16.8,21.3 18.2,22.7 20,22.7 L44.5,22.7 C46.3,22.7 47.7,21.3 47.7,19.5 C47.7,17.7 46.2,16.3 44.5,16.3 L44.5,16.3 Z"></path>
                                    <path d="M50.8,125 C50.3,125 49.8,125 49.3,125.1 L24,125.1 C23.4,125.1 23,124.4 23,123.6 C23,122.8 23.5,122.1 24,122.1 L47.7,122.1 L50,122.1 C53.8,122.1 56.8,119.1 56.8,115.3 C56.8,111.5 53.8,108.5 50,108.5 L6.9,108.5 C3.1,108.5 0.1,111.5 0.1,115.3 C0.1,119.1 3.1,122.1 6.9,122.1 L8.4,122.1 L15.7,122.1 C16.3,122.1 16.7,122.8 16.7,123.6 C16.7,124.4 16.2,125.1 15.7,125.1 L9.2,125.1 C7.3,125.1 5.8,126.6 5.8,128.5 C5.8,130.4 7.3,131.9 9.2,131.9 L13,131.9 C15.7,131.9 17.8,134.1 17.8,136.7 C17.8,139.3 15.7,141.5 13,141.5 L4.3,141.5 C2.4,141.5 0.9,143 0.9,144.9 C0.9,146.8 2.4,148.3 4.3,148.3 L23.1,148.3 C24.5,148.3 25.6,149.9 25.6,151.9 C25.6,153.9 24.5,155.5 23.1,155.5 L43,155.5 C41.6,155.5 40.5,153.9 40.5,151.9 C40.5,149.9 41.6,148.3 43,148.3 L50.6,148.3 L50.6,148.3 L50.7,148.3 C57.1,148.3 62.3,143.1 62.3,136.7 C62.4,130.2 57.2,125 50.8,125 L50.8,125 Z"></path>
                                </g>
                                <path d="M190.8,232.7 C189.4,232.7 188.3,231.6 188.3,230.2 C188.3,228.8 189.4,227.7 190.8,227.7 L197.4,227.7 C199.4,227.7 201,226.1 201,224.1 C201,222.1 199.4,220.5 197.4,220.5 L194.5,220.5 C193.1,220.5 191.9,219.4 191.9,217.9 C191.9,216.5 193,215.3 194.5,215.3 L199.5,215.3 C199.9,215.3 200.3,214.8 200.3,214.2 C200.3,213.6 199.9,213.1 199.5,213.1 L193.9,213.1 L192.7,213.1 C189.9,213.1 187.6,210.8 187.6,208 C187.6,205.2 189.9,202.9 192.7,202.9 L225.4,202.9 C228.2,202.9 230.5,205.2 230.5,208 C230.5,210.8 228.2,213.1 225.4,213.1 L223.6,213.1 L205.6,213.1 C205.2,213.1 204.8,213.6 204.8,214.2 C204.8,214.8 205.2,215.3 205.6,215.3 L217.5,215.3 C217.9,215.3 218.2,215.2 218.6,215.2 C223.4,215.2 227.4,219.1 227.4,224 C227.4,228.8 223.5,232.8 218.6,232.8 L190.8,232.8 L190.8,232.7 Z" id="Shape" fill="#70C2D8"></path>
                                <path d="M175.2,141.9 C176,141.9 176.6,142.8 176.6,143.8 C176.6,144.8 176,145.7 175.2,145.7 L171.5,145.7 C170.1,145.7 169,147.1 169,148.8 C169,150.5 170.1,151.9 171.5,151.9 L185.2,151.9 C187.2,151.9 188.8,153.9 188.8,156.4 C188.8,158.9 187.2,160.9 185.2,160.9 L198.9,160.9 C196.9,160.9 195.3,158.9 195.3,156.4 C195.3,153.9 196.9,151.9 198.9,151.9 L206.3,151.9 C207.7,151.9 208.8,150.5 208.8,148.8 C208.8,147.1 207.7,145.7 206.3,145.7 L196.7,145.7 C195.9,145.7 195.3,144.8 195.3,143.8 C195.3,142.8 195.9,141.9 196.7,141.9 L266.9,141.9 C266.8,138.9 266.3,133.6 265.1,124.5 C263.8,115.3 261,108.4 261,108.4 L195.4,108.2 C189.5,108.2 184.7,103.4 184.7,97.5 C184.7,91.6 189.5,86.8 195.4,86.8 L210.9,86.8 C217.9,86.8 223.5,81.2 223.5,74.2 C223.5,67.2 217.9,61.6 210.9,61.6 L134.8,61.6 C127.8,61.6 122.2,67.2 122.2,74.2 C122.2,81.2 127.8,86.8 134.8,86.8 L167.4,86.8 C173.3,86.8 178.1,91.6 178.1,97.5 C178.1,103.4 173.3,108.2 167.4,108.2 L161.3,108.2 C152,108.2 144.4,115.7 144.4,125.1 C144.4,134.4 151.9,142 161.3,142 L175.2,142 L175.2,141.9 Z" id="Shape" fill="#70C2D8"></path>
                                <path d="M241.6,180.2 L243.8,180.2 C249.1,180.2 253.3,175.9 253.3,170.7 C253.3,165.4 249,161.2 243.8,161.2 L167.9,161.2 C167.1,161.2 166.3,161.3 165.6,161.5 C157.4,163 151.1,170.2 151.1,178.8 C151.1,188.5 159,196.4 168.7,196.4 L192.6,196.4 C193.8,196.4 194.9,197.8 194.9,199.6 C194.9,201.4 193.9,202.8 192.6,202.8 L247.9,202.8 C249.7,202.8 251.1,201.4 251.1,199.6 C251.1,197.8 249.7,196.4 247.9,196.4 L241.7,196.4 C237.2,196.4 233.6,192.8 233.6,188.3 C233.5,183.8 237.1,180.2 241.6,180.2 L241.6,180.2 Z" id="Shape" fill="#70C2D8"></path>
                                <path d="M236.6,87.6 C232.2,87.6 228.6,84 228.6,79.6 C228.6,75.2 232.2,71.6 236.6,71.6 L241.3,71.6 C241.3,71.6 248.9,81.8 251.9,87.6 L236.6,87.6 L236.6,87.6 Z" id="Shape" fill="#70C2D8"></path>
                                <circle id="Oval" fill="#70C2D8" cx="52.5" cy="185.4" r="6.6"></circle>
                            </g>
                            <path d="M81.2,267.5 L79.8,265.9 L85.8,260.7 L87.2,262.3 L81.2,267.5 L81.2,267.5 Z M93.3,257.1 L91.9,255.5 L97.9,250.3 L99.3,251.9 L93.3,257.1 L93.3,257.1 Z M105.4,246.7 L104,245.1 L110,239.9 L111.4,241.5 L105.4,246.7 L105.4,246.7 Z M117.4,236.3 L116,234.7 L122,229.5 L123.4,231.1 L117.4,236.3 L117.4,236.3 Z M129.5,225.9 L128.1,224.3 L134.1,219.1 L135.5,220.7 L129.5,225.9 L129.5,225.9 Z M141.6,215.5 L140.2,213.9 L146.2,208.7 L147.6,210.3 L141.6,215.5 L141.6,215.5 Z M153.7,205.1 L152.3,203.5 L158.3,198.3 L159.7,199.9 L153.7,205.1 L153.7,205.1 Z M165.8,194.7 L164.4,193.1 L170.4,187.9 L171.8,189.5 L165.8,194.7 L165.8,194.7 Z M177.9,184.3 L176.5,182.7 L182.5,177.5 L183.9,179.1 L177.9,184.3 L177.9,184.3 Z M190,173.9 L188.6,172.3 L194.6,167.1 L196,168.7 L190,173.9 L190,173.9 Z M202.1,163.6 L200.7,162 L206.7,156.8 L208.1,158.4 L202.1,163.6 L202.1,163.6 Z M214.2,153.2 L212.8,151.6 L218.8,146.4 L220.2,148 L214.2,153.2 L214.2,153.2 Z M226.3,142.8 L224.9,141.2 L230.9,136 L232.3,137.6 L226.3,142.8 L226.3,142.8 Z M238.4,132.4 L237,130.8 L243,125.6 L244.4,127.2 L238.4,132.4 L238.4,132.4 Z M250.5,122 L249.1,120.4 L255.1,115.2 L256.5,116.8 L250.5,122 L250.5,122 Z M262.6,111.6 L261.2,110 L267.2,104.8 L268.6,106.4 L262.6,111.6 L262.6,111.6 Z M274.7,101.2 L273.3,99.6 L279.3,94.4 L280.7,96 L274.7,101.2 L274.7,101.2 Z M286.8,90.8 L285.4,89.2 L291.4,84 L292.8,85.6 L286.8,90.8 L286.8,90.8 Z M298.9,80.4 L297.5,78.8 L303.5,73.6 L304.9,75.2 L298.9,80.4 L298.9,80.4 Z M310.9,70 L309.5,68.4 L315.5,63.2 L316.9,64.8 L310.9,70 L310.9,70 Z M323,59.6 L321.6,58 L327.6,52.8 L329,54.4 L323,59.6 L323,59.6 Z M335.1,49.2 L333.7,47.6 L339.7,42.4 L341.1,44 L335.1,49.2 L335.1,49.2 Z M347.2,38.8 L345.8,37.2 L347,36.1 L348.4,37.7 L347.2,38.8 L347.2,38.8 Z" id="Shape" fill="#288CB0"></path>
                            <path d="M51,201 L50.4,199 L58.1,196.8 L58.7,198.8 L51,201 L51,201 Z M66.3,196.5 L65.7,194.5 L73.4,192.3 L74,194.3 L66.3,196.5 L66.3,196.5 Z M81.6,192 L81,190 L88.7,187.8 L89.3,189.8 L81.6,192 L81.6,192 Z M96.9,187.5 L96.3,185.5 L104,183.3 L104.6,185.3 L96.9,187.5 L96.9,187.5 Z M112.2,183 L111.6,181 L119.3,178.8 L119.9,180.8 L112.2,183 L112.2,183 Z M127.5,178.5 L126.9,176.5 L134.6,174.3 L135.2,176.3 L127.5,178.5 L127.5,178.5 Z M142.8,174.1 L142.2,172.1 L149.9,169.9 L150.5,171.9 L142.8,174.1 L142.8,174.1 Z M158.1,169.6 L157.5,167.6 L165.2,165.4 L165.8,167.4 L158.1,169.6 L158.1,169.6 Z M173.4,165.1 L172.8,163.1 L180.5,160.9 L181.1,162.9 L173.4,165.1 L173.4,165.1 Z M188.7,160.6 L188.1,158.6 L195.8,156.4 L196.4,158.4 L188.7,160.6 L188.7,160.6 Z M204,156.1 L203.4,154.1 L211.1,151.9 L211.7,153.9 L204,156.1 L204,156.1 Z M219.3,151.6 L218.7,149.6 L226.4,147.4 L227,149.4 L219.3,151.6 L219.3,151.6 Z M234.6,147.1 L234,145.1 L241.7,142.9 L242.3,144.9 L234.6,147.1 L234.6,147.1 Z M249.9,142.6 L249.3,140.6 L257,138.4 L257.6,140.4 L249.9,142.6 L249.9,142.6 Z M265.2,138.2 L264.6,136.2 L272.3,134 L272.9,136 L265.2,138.2 L265.2,138.2 Z M280.5,133.7 L279.9,131.7 L287.6,129.5 L288.2,131.5 L280.5,133.7 L280.5,133.7 Z M295.8,129.2 L295.2,127.2 L302.9,125 L303.5,127 L295.8,129.2 L295.8,129.2 Z M311.1,124.7 L310.5,122.7 L318.2,120.5 L318.8,122.5 L311.1,124.7 L311.1,124.7 Z M326.4,120.2 L325.8,118.2 L333.5,116 L334.1,118 L326.4,120.2 L326.4,120.2 Z M341.7,115.7 L341.1,113.7 L348.8,111.5 L349.4,113.5 L341.7,115.7 L341.7,115.7 Z M357,111.2 L356.4,109.2 L364.1,107 L364.7,109 L357,111.2 L357,111.2 Z M372.4,106.7 L371.8,104.7 L379.5,102.5 L380.1,104.5 L372.4,106.7 L372.4,106.7 Z M387.7,102.2 L387.1,100.2 L394.8,98 L395.4,100 L387.7,102.2 L387.7,102.2 Z M403,97.8 L402.4,95.8 L406.3,94.7 L406.9,96.7 L403,97.8 L403,97.8 Z" id="Shape" fill="#288CB0"></path>
                            <path d="M351.9,248.5 L346.4,244.8 L347.6,243.1 L353.1,246.8 L351.9,248.5 L351.9,248.5 Z M339.8,240.4 L333.2,236 L334.4,234.3 L341,238.7 L339.8,240.4 L339.8,240.4 Z M326.5,231.6 L319.9,227.2 L321.1,225.5 L327.7,229.9 L326.5,231.6 L326.5,231.6 Z M313.2,222.8 L306.6,218.4 L307.8,216.7 L314.4,221.1 L313.2,222.8 L313.2,222.8 Z M300,213.9 L293.4,209.5 L294.6,207.8 L301.2,212.2 L300,213.9 L300,213.9 Z M286.7,205.1 L280.1,200.7 L281.3,199 L287.9,203.4 L286.7,205.1 L286.7,205.1 Z M273.4,196.3 L266.8,191.9 L268,190.2 L274.6,194.6 L273.4,196.3 L273.4,196.3 Z M260.1,187.4 L253.5,183 L254.7,181.3 L261.3,185.7 L260.1,187.4 L260.1,187.4 Z M246.9,178.6 L240.3,174.2 L241.5,172.5 L248.1,176.9 L246.9,178.6 L246.9,178.6 Z M233.6,169.7 L227,165.3 L228.2,163.6 L234.8,168 L233.6,169.7 L233.6,169.7 Z M220.3,160.9 L213.7,156.5 L214.9,154.8 L221.5,159.2 L220.3,160.9 L220.3,160.9 Z M207.1,152.1 L200.5,147.7 L201.7,146 L208.3,150.4 L207.1,152.1 L207.1,152.1 Z M193.8,143.2 L187.2,138.8 L188.4,137.1 L195,141.5 L193.8,143.2 L193.8,143.2 Z M180.5,134.4 L173.9,130 L175.1,128.3 L181.7,132.7 L180.5,134.4 L180.5,134.4 Z M167.2,125.6 L160.6,121.2 L161.8,119.5 L168.4,123.9 L167.2,125.6 L167.2,125.6 Z M154,116.7 L147.4,112.3 L148.6,110.6 L155.2,115 L154,116.7 L154,116.7 Z M140.7,107.9 L134.1,103.5 L135.3,101.8 L141.9,106.2 L140.7,107.9 L140.7,107.9 Z M127.4,99 L120.8,94.6 L122,92.9 L128.6,97.3 L127.4,99 L127.4,99 Z M114.1,90.2 L107.5,85.8 L108.7,84.1 L115.3,88.5 L114.1,90.2 L114.1,90.2 Z M100.9,81.4 L94.3,77 L95.5,75.3 L102.1,79.7 L100.9,81.4 L100.9,81.4 Z M87.6,72.5 L81,68.1 L82.2,66.4 L88.8,70.8 L87.6,72.5 L87.6,72.5 Z M74.3,63.7 L67.7,59.3 L68.9,57.6 L75.5,62 L74.3,63.7 L74.3,63.7 Z M61,54.9 L54.4,50.5 L55.6,48.8 L62.2,53.2 L61,54.9 L61,54.9 Z" id="Shape" fill="#288CB0"></path>
                            <circle id="Oval" fill="#288CB0" cx="28.6" cy="206.1" r="24.2"></circle>
                            <g id="Group" transform="translate(17.000000, 24.000000)" fill="#FFFFFF">
                                <path d="M4.6,1.2 C7.3,1.2 8.8,2.5 8.8,4.9 C8.8,7.4 7.3,8.8 4.6,8.8 L2.7,8.8 L2.7,11.8 L0,11.8 L0,1.3 L4.6,1.3 L4.6,1.2 Z M2.7,6.7 L4.5,6.7 C5.7,6.7 6.3,6.1 6.3,5 C6.3,3.9 5.6,3.4 4.5,3.4 L2.7,3.4 L2.7,6.7 L2.7,6.7 Z" id="Shape"></path>
                                <path d="M14.4,0.6 C13.3,2.4 12.6,4.6 12.6,7.1 C12.6,9.6 13.3,11.8 14.4,13.6 L12,13.6 C10.8,11.8 10.1,9.6 10.1,7.1 C10.1,4.6 10.8,2.4 12,0.6 L14.4,0.6 L14.4,0.6 Z" id="Shape"></path>
                                <polygon id="Shape" points="20.4 3.7 23.2 3.7 20.6 7.6 23.3 11.8 20.3 11.8 18.8 9.3 17.2 11.8 14.3 11.8 17.1 7.7 14.5 3.8 17.5 3.8 18.8 6.1"></polygon>
                                <path d="M26.6,0.6 C27.8,2.4 28.5,4.6 28.5,7.1 C28.5,9.6 27.8,11.8 26.6,13.6 L24.3,13.6 C25.4,11.8 26.1,9.6 26.1,7.1 C26.1,4.6 25.4,2.4 24.3,0.6 L26.6,0.6 L26.6,0.6 Z" id="Shape"></path>
                            </g>
                            <g id="Group" transform="translate(354.000000, 17.000000)" fill="#FFFFFF">
                                <path d="M3.9,9.4 L3.1,11.5 L0.2,11.5 L5,0.3 L7.9,0.3 L12.6,11.5 L9.6,11.5 L8.8,9.4 L3.9,9.4 L3.9,9.4 Z M6.4,3.1 L4.8,7.2 L8,7.2 L6.4,3.1 L6.4,3.1 Z" id="Shape"></path>
                                <polygon id="Shape" points="13.7 11.5 13.7 0.3 16.5 0.3 16.5 11.5"></polygon>
                            </g>
                            <g id="Group" transform="translate(422.000000, 82.000000)" fill="#288CB0">
                                <path d="M8.8,8.7 C8.8,11.4 7.1,12.9 4.4,12.9 C2.6,12.9 1.2,12.2 0.1,10.9 L1.6,8.8 C2.5,9.7 3.5,10.2 4.2,10.2 C5,10.2 5.6,9.7 5.6,8.7 L5.6,2.8 L1.3,2.8 L1.3,0.2 L8.8,0.2 L8.8,8.7 L8.8,8.7 Z" id="Shape"></path>
                                <path d="M20.9,1.4 L19.7,3.9 C18.4,3.1 16.7,2.6 15.7,2.6 C14.9,2.6 14.3,2.9 14.3,3.5 C14.3,5.7 21,4.4 21,9 C21,11.5 18.8,12.9 16,12.9 C13.9,12.9 11.7,12.1 10.2,10.9 L11.4,8.4 C12.7,9.5 14.6,10.3 16,10.3 C17,10.3 17.6,9.9 17.6,9.2 C17.6,7 10.9,8.3 10.9,3.8 C10.9,1.5 12.9,0 15.9,0 C17.7,1.13686838e-13 19.6,0.6 20.9,1.4 L20.9,1.4 Z" id="Shape"></path>
                            </g>
                            <path d="M29.9,208.6 L29.9,208.6 L27.2,208.6 L27.2,212.3 L23.8,212.3 L23.8,199 L29.7,199 C33.2,199 35.2,200.7 35.2,203.6 C35.2,205.6 34.3,207.1 32.8,207.9 L35.6,212.3 L31.8,212.3 L29.9,208.6 L29.9,208.6 Z M29.8,205.9 C31.3,205.9 32.1,205.2 32.1,203.8 C32.1,202.4 31.2,201.7 29.8,201.7 L27.2,201.7 L27.2,205.9 L29.8,205.9 L29.8,205.9 Z" id="Shape" fill="#AACAE3"></path>
                            <g id="Group" transform="translate(359.000000, 258.000000)" fill="#288CB0">
                                <path d="M13.1,3.2 L11.1,5.5 C10.2,4.4 8.9,3.8 7.8,3.8 C5.7,3.8 4.1,5.5 4.1,7.7 C4.1,9.9 5.7,11.6 7.8,11.6 C8.9,11.6 10.2,11 11.1,10 L13.1,12.1 C11.7,13.6 9.6,14.5 7.6,14.5 C3.6,14.5 0.6,11.6 0.6,7.7 C0.6,3.9 3.7,1 7.7,1 C9.7,0.9 11.7,1.8 13.1,3.2 L13.1,3.2 Z" id="Shape"></path>
                                <path d="M25,2.4 L23.7,5 C22.3,4.2 20.5,3.6 19.4,3.6 C18.5,3.6 17.9,3.9 17.9,4.6 C17.9,6.9 24.9,5.6 24.9,10.4 C24.9,13.1 22.5,14.5 19.6,14.5 C17.4,14.5 15.1,13.7 13.5,12.4 L14.8,9.8 C16.2,11 18.2,11.8 19.6,11.8 C20.7,11.8 21.3,11.4 21.3,10.6 C21.3,8.2 14.3,9.6 14.3,4.9 C14.3,2.4 16.4,0.9 19.6,0.9 C21.7,0.9 23.6,1.5 25,2.4 L25,2.4 Z" id="Shape"></path>
                                <path d="M37.2,2.4 L36,5 C34.6,4.2 32.8,3.6 31.7,3.6 C30.8,3.6 30.2,3.9 30.2,4.6 C30.2,6.9 37.2,5.6 37.2,10.4 C37.2,13.1 34.8,14.5 31.9,14.5 C29.7,14.5 27.4,13.7 25.8,12.4 L27.1,9.8 C28.5,11 30.5,11.8 31.9,11.8 C33,11.8 33.6,11.4 33.6,10.6 C33.6,8.2 26.6,9.6 26.6,4.9 C26.6,2.4 28.7,0.9 31.9,0.9 C33.9,0.9 35.9,1.5 37.2,2.4 L37.2,2.4 Z" id="Shape"></path>
                            </g>
                            <g id="Group" transform="translate(48.000000, 275.000000)" fill="#288CB0">
                                <path d="M4.6,0.5 C7.3,0.5 8.8,1.8 8.8,4.2 C8.8,6.7 7.3,8.1 4.6,8.1 L2.7,8.1 L2.7,11.1 L0,11.1 L0,0.6 L4.6,0.6 L4.6,0.5 Z M2.7,5.9 L4.5,5.9 C5.7,5.9 6.3,5.3 6.3,4.2 C6.3,3.1 5.6,2.6 4.5,2.6 L2.7,2.6 L2.7,5.9 L2.7,5.9 Z" id="Shape"></path>
                                <polygon id="Shape" points="17.3 11 17.3 6.9 13 6.9 13 11 10.3 11 10.3 0.5 13 0.5 13 4.8 17.3 4.8 17.3 0.5 20 0.5 20 11"></polygon>
                                <path d="M26.6,0.5 C29.3,0.5 30.8,1.8 30.8,4.2 C30.8,6.7 29.3,8.1 26.6,8.1 L24.7,8.1 L24.7,11.1 L22,11.1 L22,0.6 L26.6,0.6 L26.6,0.5 Z M24.7,5.9 L26.5,5.9 C27.7,5.9 28.3,5.3 28.3,4.2 C28.3,3.1 27.6,2.6 26.5,2.6 L24.7,2.6 L24.7,5.9 L24.7,5.9 Z" id="Shape"></path>
                            </g>
                        </g>
                    </g>
                </g>
            </g>
        </g>
    </g>
</svg>